<svg id="BACKGROUND_2" data-name="BACKGROUND 2" xmlns="http://www.w3.org/2000/svg" xmlns:xlink="http://www.w3.org/1999/xlink" viewBox="0 0 40.03 56.19"><defs><style>.cls-1{fill:none;}.cls-2{fill:#dfbe9f;}.cls-3{fill:#112940;opacity:0.33;}.cls-4{fill:#347abf;}.cls-5{clip-path:url(#clip-path);}</style><clipPath id="clip-path"><rect class="cls-1" x="186.57" y="-621.23" width="500" height="500"/></clipPath></defs><title>Artboard 1</title><polygon class="cls-2" points="25.67 55.04 2.4 6.54 1.64 6.91 24.73 55.04 23.09 55.82 23.27 56.19 25.67 55.04"/><polygon class="cls-3" points="25.67 55.04 2.4 6.54 1.64 6.91 24.73 55.04 23.09 55.82 23.27 56.19 25.67 55.04"/><rect class="cls-2" x="11.46" y="4.68" width="1.81" height="53.38" transform="translate(-12.35 8.44) rotate(-25.63)"/><path class="cls-4" d="M9.56,2.25C4.44,4.09,2.4,6.54,2.4,6.54L12,26.38a16.84,16.84,0,0,1,7-4.5,8.27,8.27,0,0,1,1.59-.29L12.12,1.71A9.84,9.84,0,0,0,9.56,2.25Z"/><path class="cls-4" d="M30.62,0l.14.28C30.9.07,30.62,0,30.62,0Z"/><path class="cls-4" d="M33.69,22.09C38.8,20.86,40,19.22,40,19.22L30.76.28c-.21.28-1.24.81-5.05,1.77a16.51,16.51,0,0,1-4.12.46L30,22.41A13.68,13.68,0,0,0,33.69,22.09Z"/><path class="cls-4" d="M12.12,1.71l8.43,19.88c2.83-.24,6.15.7,9.48.82L21.59,2.51C18.1,2.47,15.14,1.47,12.12,1.71Z"/><path class="cls-3" d="M12.12,1.71l8.43,19.88c2.83-.24,6.15.7,9.48.82L21.59,2.51C18.1,2.47,15.14,1.47,12.12,1.71Z"/></svg>