<svg id="BACKGROUND_2" data-name="BACKGROUND 2" xmlns="http://www.w3.org/2000/svg" xmlns:xlink="http://www.w3.org/1999/xlink" viewBox="0 0 40.03 56.19"><defs><style>.cls-1{fill:none;}.cls-2{fill:#db5419;}.cls-3{fill:#dfbe9f;}.cls-4{fill:#112940;opacity:0.33;}.cls-5{fill:#347abf;}.cls-6{fill:url(#New_Pattern_Swatch_14);}.cls-7{clip-path:url(#clip-path);}</style><pattern id="New_Pattern_Swatch_14" data-name="New Pattern Swatch 14" width="146" height="146" patternUnits="userSpaceOnUse" viewBox="0 0 146 146"><rect class="cls-1" width="146" height="146"/><rect class="cls-2" width="146" height="146"/></pattern><clipPath id="clip-path"><rect class="cls-1" x="112.74" y="-621.23" width="500" height="500"/></clipPath></defs><title>Artboard 1</title><polygon class="cls-3" points="25.67 55.04 2.4 6.54 1.64 6.91 24.73 55.04 23.09 55.82 23.27 56.19 25.67 55.04"/><polygon class="cls-4" points="25.67 55.04 2.4 6.54 1.64 6.91 24.73 55.04 23.09 55.82 23.27 56.19 25.67 55.04"/><rect class="cls-3" x="11.46" y="4.68" width="1.81" height="53.38" transform="translate(-12.35 8.44) rotate(-25.63)"/><path class="cls-5" d="M30.62,0l.14.28C30.9.07,30.62,0,30.62,0Z"/><path class="cls-6" d="M30.76.28c-.21.28-1.24.81-5.05,1.77a16.51,16.51,0,0,1-4.12.46c-3.49,0-6.45-1-9.47-.8a9.84,9.84,0,0,0-2.56.54C4.44,4.09,2.4,6.54,2.4,6.54L12,26.38a16.84,16.84,0,0,1,7-4.5,8.27,8.27,0,0,1,1.59-.29c2.83-.24,6.15.7,9.48.82a13.68,13.68,0,0,0,3.66-.32C38.8,20.86,40,19.22,40,19.22Z"/><path class="cls-4" d="M12.12,1.71l8.43,19.88c2.83-.24,6.15.7,9.48.82L21.59,2.51C18.1,2.47,15.14,1.47,12.12,1.71Z"/></svg>