<svg id="Layer_1" data-name="Layer 1" xmlns="http://www.w3.org/2000/svg" viewBox="0 0 251 251"><defs><style>.cls-1{fill:#aab5b5;}.cls-2{fill:#d9dbdb;}.cls-3{fill:#566868;opacity:0.29;}.cls-4{fill:#ededed;}</style></defs><title>vArtboard 2</title><path class="cls-1" d="M42.35,110s.94-7.62-4.44-8.33-11,1.06-10.9,5.18S40,120.9,42.35,110Z"/><path class="cls-2" d="M28.48,108.68a.57.57,0,0,1,.35-.62.61.61,0,0,1,.57.06l.78,1.91a.59.59,0,0,0,1.09-.45l-1.18-2.85a.58.58,0,0,1,1.09-.41l1.49,3.59a.59.59,0,0,0,1.09-.45l-1.27-3a.62.62,0,0,1,.36-.47.6.6,0,0,1,.77.32l1.75,4.22a.59.59,0,0,0,1.09-.45L34,104.17a.58.58,0,0,1,1-.43l1,2.5a.59.59,0,1,0,1.09-.45l-.16-.41a.58.58,0,0,1,.32-.77.6.6,0,0,1,.77.32v0l.82,2a.59.59,0,0,0,.77.31.59.59,0,0,0,.32-.76l-.94-2.28a.59.59,0,0,1,.35-.63.6.6,0,0,1,.66.16l.47,1.12a.59.59,0,0,0,.77.32.63.63,0,0,0,.35-.43,4.6,4.6,0,0,0-3.79-3c-5.39-.72-11,1.06-10.9,5.18,0,1.1,1,2.62,2.39,4Z"/><path class="cls-2" d="M36.8,112.5a.58.58,0,1,1,.31-.76A.59.59,0,0,1,36.8,112.5Z"/><path class="cls-2" d="M40.32,108.86a.58.58,0,1,1,.31-.75A.58.58,0,0,1,40.32,108.86Z"/><path class="cls-2" d="M31.54,111.76a.53.53,0,0,1-.69-.29.52.52,0,0,1,.28-.69.55.55,0,0,1,.7.29A.53.53,0,0,1,31.54,111.76Z"/><path class="cls-3" d="M42.35,110s.52-4.21-1.43-6.67a12.63,12.63,0,0,1,.44,4.76c-1.93,9-11.07,3.78-14.25-.62C28.31,111.88,40.13,120.38,42.35,110Z"/><path class="cls-1" d="M18,65.86s-5.4-5.46-9.3-1.68S2.74,73.46,6,75.94,25.1,74.42,18,65.86Z"/><path class="cls-2" d="M8.35,75.92a.61.61,0,0,1-.27-.67.59.59,0,0,1,.41-.4l2,.56a.59.59,0,1,0,.32-1.13l-3-.84a.59.59,0,0,1,.36-1.11l3.73,1a.59.59,0,1,0,.32-1.13l-3.17-.9a.58.58,0,0,1,.58-1L14,71.62a.59.59,0,0,0,.32-1.14l-6.1-1.72A.59.59,0,0,1,8,68.09a.58.58,0,0,1,.58-.42l2.61.73a.59.59,0,0,0,.73-.4.61.61,0,0,0-.41-.73l-.43-.13A.59.59,0,0,1,11.4,66l0,0,2.07.58a.59.59,0,0,0,.73-.4.61.61,0,0,0-.41-.73l-2.37-.67a.57.57,0,0,1-.27-.66.59.59,0,0,1,.53-.43l1.17.33a.58.58,0,0,0,.72-.4.57.57,0,0,0-.12-.55,4.62,4.62,0,0,0-4.7,1.12C4.81,68,2.74,73.46,6,75.94c.88.66,2.65.86,4.65.63Z"/><path class="cls-2" d="M16.51,71.75a.58.58,0,0,1-.72.4.59.59,0,0,1-.4-.71.58.58,0,0,1,.72-.4A.57.57,0,0,1,16.51,71.75Z"/><path class="cls-2" d="M15.83,66.73a.58.58,0,1,1-.4-.71A.57.57,0,0,1,15.83,66.73Z"/><path class="cls-2" d="M12.67,75.42a.53.53,0,0,1-.66.36.52.52,0,0,1-.36-.65.53.53,0,0,1,.65-.37A.54.54,0,0,1,12.67,75.42Z"/><path class="cls-3" d="M18,65.86s-3-3-6.13-3a12.57,12.57,0,0,1,4,2.6c5.85,7.07-3.89,11-9.31,10.8C10.76,78,24.76,74,18,65.86Z"/><path class="cls-1" d="M31.05,190.48s-.41-5-4-4.75-6.9,2.14-6.29,4.77S31,197.76,31.05,190.48Z"/><path class="cls-2" d="M22,191.47a.38.38,0,0,1,.51-.48l.76,1.11a.39.39,0,0,0,.64-.43L22.75,190a.39.39,0,0,1,.13-.49.38.38,0,0,1,.52.08l1.43,2.1a.38.38,0,0,0,.53.1.39.39,0,0,0,.11-.53l-1.22-1.79a.37.37,0,0,1,.17-.34.38.38,0,0,1,.53.1l1.69,2.47a.38.38,0,0,0,.53.1.4.4,0,0,0,.11-.54l-2.34-3.43a.37.37,0,0,1,.15-.44.38.38,0,0,1,.47,0l1,1.47a.4.4,0,0,0,.54.1.39.39,0,0,0,.1-.54l-.16-.24a.39.39,0,0,1,.64-.44v0l.79,1.16a.39.39,0,0,0,.64-.43l-.91-1.33a.39.39,0,0,1,.15-.45.36.36,0,0,1,.44,0l.45.66a.38.38,0,0,0,.53.1.4.4,0,0,0,.17-.33,3,3,0,0,0-2.83-1.41c-3.55.26-6.9,2.14-6.29,4.77a4.64,4.64,0,0,0,2.07,2.27Z"/><path class="cls-2" d="M27.82,192.81a.38.38,0,1,1-.43-.63.38.38,0,0,1,.43.63Z"/><path class="cls-2" d="M29.59,190a.37.37,0,1,1,.1-.52A.36.36,0,0,1,29.59,190Z"/><path class="cls-2" d="M24.35,193a.35.35,0,1,1,.09-.48A.34.34,0,0,1,24.35,193Z"/><path class="cls-3" d="M31.05,190.48s-.23-2.77-1.8-4.09a8.36,8.36,0,0,1,.91,3c0,6-6.59,3.9-9.21,1.51C22.3,193.54,31,197.41,31.05,190.48Z"/><path class="cls-1" d="M79.23,50.09s-7.61,1-7,6.36,3.73,10.38,7.7,9.29S90.34,49.68,79.23,50.09Z"/><path class="cls-2" d="M81.34,63.87a.58.58,0,0,1-.77-.75l1.65-1.23a.59.59,0,0,0-.7-1l-2.47,1.85a.59.59,0,0,1-.67-1l3.11-2.32a.59.59,0,1,0-.7-.94l-2.64,2a.59.59,0,0,1-.42-1.06l3.65-2.73a.59.59,0,0,0-.7-1L75.6,59.59a.59.59,0,0,1-.68-.91l2.18-1.62a.59.59,0,1,0-.71-.94l-.36.25a.58.58,0,0,1-.82-.12.59.59,0,0,1,.12-.82l0,0L77,54.16a.59.59,0,1,0-.7-.94l-2,1.47a.59.59,0,0,1-.7-.19.59.59,0,0,1,0-.68l1-.73A.58.58,0,0,0,74.22,52a4.62,4.62,0,0,0-2,4.41c.63,5.4,3.73,10.38,7.7,9.29,1.06-.3,2.3-1.59,3.33-3.31Z"/><path class="cls-2" d="M83,54.87a.59.59,0,0,1-.12.81.58.58,0,1,1,.12-.81Z"/><path class="cls-2" d="M78.6,52.35a.58.58,0,1,1-.8-.12A.57.57,0,0,1,78.6,52.35Z"/><path class="cls-2" d="M83.57,60.15a.53.53,0,0,1-.11.74.53.53,0,1,1,.11-.74Z"/><path class="cls-3" d="M79.23,50.09s-4.21.53-6.11,3a12.38,12.38,0,0,1,4.5-1.59c9.17-.34,6.38,9.8,2.9,14C84.48,63.25,89.81,49.7,79.23,50.09Z"/><path class="cls-1" d="M220.24,190.22s-3.06-7.05-8.07-4.93-8.91,6.5-6.75,10S223.75,200.76,220.24,190.22Z"/><path class="cls-2" d="M207.6,196.11a.6.6,0,0,1,0-.72.58.58,0,0,1,.52-.23l1.65,1.24a.59.59,0,0,0,.71-.94L208,193.61a.59.59,0,0,1,.74-.91l3.1,2.33a.59.59,0,0,0,.82-.11.6.6,0,0,0-.12-.83l-2.63-2a.58.58,0,0,1,.07-.58.59.59,0,0,1,.82-.12l3.66,2.74a.59.59,0,0,0,.7-.94l-5.06-3.81a.6.6,0,0,1,0-.72.58.58,0,0,1,.69-.19l2.17,1.63a.58.58,0,0,0,.82-.11.59.59,0,0,0-.11-.83l-.35-.27A.59.59,0,1,1,214,188l0,0,1.72,1.29a.59.59,0,0,0,.82-.12.58.58,0,0,0-.11-.82l-2-1.48a.59.59,0,0,1,.63-.93l1,.74a.6.6,0,0,0,.83-.12A.58.58,0,0,0,217,186a4.61,4.61,0,0,0-4.79-.66c-5,2.12-8.91,6.5-6.75,10,.58.94,2.17,1.76,4.11,2.27Z"/><path class="cls-2" d="M216.71,195.17a.57.57,0,0,1-.81.11.57.57,0,0,1-.11-.81.58.58,0,0,1,.92.7Z"/><path class="cls-2" d="M217.89,190.25a.58.58,0,0,1-.92-.7.58.58,0,0,1,.92.7Z"/><path class="cls-2" d="M211.81,197.2a.53.53,0,1,1-.85-.64.53.53,0,0,1,.85.64Z"/><path class="cls-3" d="M220.24,190.22s-1.7-3.9-4.63-5a12.38,12.38,0,0,1,2.8,3.87c2.9,8.71-7.61,8.88-12.59,6.71C209.09,199,223.59,200.26,220.24,190.22Z"/><path class="cls-1" d="M60,216.78s-5.47-5.39-9.32-1.55S44.78,224.59,48.1,227,67.15,225.25,60,216.78Z"/><path class="cls-2" d="M50.43,227a.59.59,0,0,1-.28-.66.57.57,0,0,1,.4-.41l2,.53a.59.59,0,0,0,.72-.41.6.6,0,0,0-.42-.72l-3-.8a.59.59,0,0,1,.34-1.12l3.74,1a.59.59,0,0,0,.31-1.14l-3.19-.85a.59.59,0,0,1-.15-.57.58.58,0,0,1,.72-.41l4.41,1.17a.59.59,0,0,0,.31-1.13l-6.12-1.65a.59.59,0,0,1-.28-.66.58.58,0,0,1,.57-.43l2.62.7a.59.59,0,1,0,.31-1.14l-.43-.12a.59.59,0,0,1,.31-1.14l0,0,2.08.56a.59.59,0,0,0,.3-1.14l-2.37-.64a.58.58,0,0,1,.24-1.09l1.17.32a.59.59,0,0,0,.72-.42.58.58,0,0,0-.12-.54,4.63,4.63,0,0,0-4.69,1.18c-3.85,3.84-5.85,9.36-2.53,11.79.89.65,2.67.83,4.66.57Z"/><path class="cls-2" d="M58.53,222.7a.58.58,0,0,1-.71.4.57.57,0,1,1,.3-1.11A.58.58,0,0,1,58.53,222.7Z"/><path class="cls-2" d="M57.78,217.69a.57.57,0,1,1-1.11-.3.58.58,0,0,1,.71-.41A.57.57,0,0,1,57.78,217.69Z"/><path class="cls-2" d="M54.74,226.41a.53.53,0,0,1-1-.27.53.53,0,1,1,1,.27Z"/><path class="cls-3" d="M60,216.78s-3-3-6.16-2.92a12.53,12.53,0,0,1,4,2.55c6,7-3.74,11.07-9.17,10.91C52.86,229.05,66.81,224.85,60,216.78Z"/><path class="cls-1" d="M230.64,141.67s-2.47-5.7-6.52-4-7.22,5.26-5.47,8.09S233.49,150.21,230.64,141.67Z"/><path class="cls-2" d="M220.42,146.44a.47.47,0,0,1,.41-.76l1.33,1a.48.48,0,1,0,.57-.76l-2-1.5a.47.47,0,0,1-.05-.63.48.48,0,0,1,.64-.11l2.51,1.89a.48.48,0,0,0,.58-.76l-2.14-1.6a.47.47,0,0,1,.06-.47.49.49,0,0,1,.67-.1l3,2.22a.49.49,0,0,0,.67-.09.48.48,0,0,0-.09-.67l-4.1-3.09a.48.48,0,0,1,0-.58.47.47,0,0,1,.56-.15l1.76,1.32a.46.46,0,0,0,.66-.09.48.48,0,0,0-.09-.67l-.28-.22a.48.48,0,0,1-.1-.67.49.49,0,0,1,.67-.1l0,0,1.39,1a.48.48,0,1,0,.57-.77l-1.59-1.2a.47.47,0,0,1,.51-.74l.79.59a.47.47,0,0,0,.73-.54,3.72,3.72,0,0,0-3.87-.53c-4.05,1.72-7.22,5.26-5.47,8.09a5.78,5.78,0,0,0,3.33,1.84Z"/><path class="cls-2" d="M227.79,145.68a.48.48,0,0,1-.66.1.48.48,0,0,1-.09-.66.47.47,0,0,1,.66-.09A.47.47,0,0,1,227.79,145.68Z"/><path class="cls-2" d="M228.75,141.7a.47.47,0,0,1-.66.09.45.45,0,0,1-.09-.65.46.46,0,0,1,.65-.1A.48.48,0,0,1,228.75,141.7Z"/><path class="cls-2" d="M223.82,147.33a.43.43,0,0,1-.6.09.44.44,0,0,1-.09-.61.43.43,0,0,1,.69.52Z"/><path class="cls-3" d="M230.64,141.67s-1.37-3.15-3.74-4.06a10.18,10.18,0,0,1,2.26,3.14c2.35,7.05-6.16,7.19-10.18,5.43C221.62,148.74,233.36,149.81,230.64,141.67Z"/><path class="cls-1" d="M103.18,150.85s-2.52-5.78-6.63-4S89.23,152.14,91,155,106.07,159.51,103.18,150.85Z"/><path class="cls-2" d="M92.8,155.69a.49.49,0,0,1,0-.59.49.49,0,0,1,.43-.19l1.35,1a.48.48,0,1,0,.58-.77l-2-1.52a.49.49,0,0,1,0-.64.47.47,0,0,1,.65-.11l2.55,1.92a.48.48,0,0,0,.67-.1.49.49,0,0,0-.09-.68l-2.17-1.63a.47.47,0,0,1,.06-.47.49.49,0,0,1,.68-.1l3,2.25a.48.48,0,1,0,.58-.77l-4.16-3.13a.49.49,0,0,1,0-.59.49.49,0,0,1,.57-.16l1.78,1.34a.49.49,0,0,0,.68-.09.48.48,0,0,0-.1-.68l-.28-.22a.48.48,0,0,1-.1-.68.49.49,0,0,1,.68-.1l0,0L99.46,150a.48.48,0,1,0,.58-.77l-1.62-1.22a.49.49,0,0,1,0-.59.48.48,0,0,1,.53-.17l.8.6a.48.48,0,0,0,.75-.54,3.79,3.79,0,0,0-3.94-.54c-4.11,1.74-7.32,5.33-5.54,8.21a5.83,5.83,0,0,0,3.37,1.86Z"/><path class="cls-2" d="M100.28,154.92a.48.48,0,0,1-.76-.57.49.49,0,0,1,.67-.1A.48.48,0,0,1,100.28,154.92Z"/><path class="cls-2" d="M101.25,150.87a.47.47,0,0,1-.66.1.49.49,0,0,1-.1-.67.48.48,0,0,1,.67-.09A.47.47,0,0,1,101.25,150.87Z"/><path class="cls-2" d="M96.25,156.59a.44.44,0,1,1-.69-.53.44.44,0,0,1,.69.53Z"/><path class="cls-3" d="M103.18,150.85s-1.4-3.2-3.8-4.12a10.22,10.22,0,0,1,2.29,3.18c2.39,7.15-6.25,7.29-10.33,5.51C94,158,105.93,159.1,103.18,150.85Z"/><path class="cls-1" d="M116.83,93.11c5.74-3.83,3.72-12.71-3.07-13.92-4.91-.88-10.15-.51-5,7,3.82,5.64,5.29,8.36,7.62,7.16A5.28,5.28,0,0,0,116.83,93.11Z"/><path class="cls-2" d="M111.2,89a.49.49,0,0,0,.13-.67l-1.16-1.71a.48.48,0,0,1,.15-.63.49.49,0,0,1,.66.12l.28.41a.48.48,0,0,0,.67.13.49.49,0,0,0,.13-.67l-.42-.61a.48.48,0,0,1,.15-.63.47.47,0,0,1,.63.09l.17.25a.48.48,0,1,0,.8-.54l-.6-.89a.48.48,0,0,1,.87-.36l1.8,2.64a.47.47,0,0,0,.66.13.48.48,0,0,0,.13-.67l-1.15-1.7a.48.48,0,0,1,.15-.63.48.48,0,0,1,.66.12l.28.41a.47.47,0,0,0,.66.13.48.48,0,0,0,.13-.67l-.41-.62a.47.47,0,0,1,.15-.62.48.48,0,0,1,.64.09l.75,1.11a.47.47,0,0,0,.66.12.48.48,0,0,0,.21-.49,7.65,7.65,0,0,0-5.22-3.49c-4.91-.88-10.15-.51-5,7l1.81,2.69A.49.49,0,0,0,111.2,89Z"/><path class="cls-4" d="M114.12,86.46a.42.42,0,1,1,.11-.58A.42.42,0,0,1,114.12,86.46Z"/><circle class="cls-4" cx="117.49" cy="84.61" r="0.49" transform="translate(-23.99 53.86) rotate(-23.5)"/><path class="cls-3" d="M118.3,81.76a7.55,7.55,0,0,1-2.42,9.94l-.49.29c-1.77.91-3-.46-5.24-3.65,2.81,4.18,4.18,6.09,6.2,5a5.28,5.28,0,0,0,.48-.28A7.62,7.62,0,0,0,118.3,81.76Z"/><path class="cls-1" d="M164.34,51.62c-5.27-4.85-13.71-.64-13.27,6.5.32,5.17,2,10.35,8.33,3.34,4.74-5.23,7.12-7.38,5.35-9.43A5.28,5.28,0,0,0,164.34,51.62Z"/><path class="cls-2" d="M161.62,58.29a.49.49,0,0,0-.7,0l-1.44,1.59a.5.5,0,0,1-.67,0,.49.49,0,0,1,0-.69l.34-.39a.49.49,0,0,0,0-.7.5.5,0,0,0-.71,0l-.51.57a.49.49,0,0,1-.74-.65l.21-.24a.49.49,0,0,0,0-.7.5.5,0,0,0-.71,0l-.74.83a.51.51,0,0,1-.54-.09.49.49,0,0,1,0-.7l2.22-2.46a.49.49,0,0,0,0-.7.5.5,0,0,0-.71,0l-1.43,1.58a.5.5,0,0,1-.67,0,.51.51,0,0,1-.05-.7l.35-.38a.5.5,0,0,0-.74-.67l-.52.57a.49.49,0,0,1-.73-.66l.93-1a.5.5,0,0,0,0-.71.53.53,0,0,0-.55-.08,7.94,7.94,0,0,0-2.24,6.11c.32,5.17,2,10.35,8.33,3.34.83-.91,1.59-1.73,2.26-2.48A.49.49,0,0,0,161.62,58.29Z"/><path class="cls-4" d="M158.31,56a.43.43,0,0,1-.58.64.43.43,0,0,1,.58-.64Z"/><circle class="cls-4" cx="155.62" cy="53.04" r="0.5" transform="translate(-0.41 104.85) rotate(-37.19)"/><path class="cls-3" d="M152.55,52.92a7.8,7.8,0,0,1,10.6,0,5.25,5.25,0,0,1,.41.42c1.35,1.56.29,3.18-2.39,6.18,3.53-3.86,5.11-5.71,3.58-7.49a5.28,5.28,0,0,0-.41-.41A7.89,7.89,0,0,0,152.55,52.92Z"/><path class="cls-1" d="M250.24,98.83c-.65-7.12-9.73-9.68-14.2-4.09-3.23,4-5.49,9,3.92,8.07,7-.69,10.24-.69,10.3-3.4C250.26,99.24,250.26,99.05,250.24,98.83Z"/><path class="cls-2" d="M243.74,102a.5.5,0,0,0-.55-.45l-2.12.21a.5.5,0,0,1-.5-.45.49.49,0,0,1,.43-.54l.52,0a.5.5,0,0,0-.1-1l-.77.08a.51.51,0,0,1-.5-.45.5.5,0,0,1,.4-.53l.31,0a.5.5,0,1,0-.1-1l-1.1.11a.5.5,0,0,1,.1-1l3.3-.33a.51.51,0,0,0,.45-.54.5.5,0,0,0-.55-.45l-2.12.21a.49.49,0,0,1-.5-.45.49.49,0,0,1,.43-.54l.51,0a.5.5,0,0,0,.45-.55.51.51,0,0,0-.54-.45l-.77.08a.5.5,0,0,1-.1-1l1.38-.13a.5.5,0,0,0,.45-.55.51.51,0,0,0-.35-.43,7.92,7.92,0,0,0-5.76,3c-3.23,4-5.49,9,3.92,8.07l3.34-.32A.49.49,0,0,0,243.74,102Z"/><path class="cls-4" d="M242.84,98a.43.43,0,0,1-.39.47.42.42,0,0,1-.47-.38.43.43,0,0,1,.86-.09Z"/><circle class="cls-4" cx="242.82" cy="94.03" r="0.5" transform="translate(127.87 327.67) rotate(-84.97)"/><path class="cls-3" d="M240.63,91.87A7.81,7.81,0,0,1,248.48,99a4,4,0,0,1,0,.58c0,2.07-1.92,2.56-5.92,3,5.21-.49,7.62-.8,7.68-3.15,0-.17,0-.36,0-.58A7.9,7.9,0,0,0,240.63,91.87Z"/><path class="cls-1" d="M205.59,122.91c-2.39-5.94-10.83-5.79-13.22.15-1.72,4.3-2.38,9.12,5.45,5.9,5.84-2.4,8.59-3.22,7.94-5.56A3.2,3.2,0,0,0,205.59,122.91Z"/><path class="cls-2" d="M200.83,127.25a.45.45,0,0,0-.58-.24l-1.77.73a.45.45,0,0,1-.31-.84l.43-.17a.45.45,0,0,0-.34-.83l-.64.26a.44.44,0,0,1-.34-.81l.26-.11a.44.44,0,1,0-.34-.82l-.92.38a.46.46,0,0,1-.4-.28.43.43,0,0,1,.24-.58l2.74-1.13a.47.47,0,0,0,.24-.59.45.45,0,0,0-.58-.24l-1.77.73a.45.45,0,0,1-.54-.26.45.45,0,0,1,.23-.58l.43-.17a.45.45,0,0,0-.34-.83l-.64.26a.44.44,0,0,1-.34-.81l1.15-.48a.43.43,0,0,0,.24-.58.46.46,0,0,0-.41-.28,7.13,7.13,0,0,0-4.16,4.08c-1.72,4.3-2.38,9.12,5.45,5.9l2.78-1.13A.45.45,0,0,0,200.83,127.25Z"/><path class="cls-4" d="M199,124.11a.39.39,0,0,1-.2.51.4.4,0,0,1-.51-.21.39.39,0,1,1,.71-.3Z"/><circle class="cls-4" cx="198" cy="120.7" r="0.45" transform="translate(-20.4 42.77) rotate(-11.73)"/><path class="cls-3" d="M195.57,119.42a7,7,0,0,1,8.57,4.09,4.83,4.83,0,0,1,.17.49c.49,1.78-1,2.68-4.31,4.08,4.33-1.77,6.32-2.66,5.76-4.68a3.2,3.2,0,0,0-.17-.49A7.06,7.06,0,0,0,195.57,119.42Z"/><path class="cls-1" d="M218.33,69c1.86-6.12-4.81-11.3-10.39-8.17-4,2.26-7.58,5.61.54,8,6.05,1.79,8.71,2.88,9.68.65C218.22,69.33,218.27,69.17,218.33,69Z"/><path class="cls-2" d="M211.9,69.38a.45.45,0,0,0-.3-.56l-1.84-.54a.44.44,0,0,1-.26-.54.45.45,0,0,1,.54-.3l.44.13a.45.45,0,1,0,.26-.86l-.66-.19a.46.46,0,0,1-.27-.54.45.45,0,0,1,.51-.31l.27.08a.45.45,0,1,0,.25-.86l-1-.28a.45.45,0,0,1,.42-.77l2.84.84a.45.45,0,0,0,.55-.31.44.44,0,0,0-.3-.55l-1.83-.54a.45.45,0,0,1-.26-.54.45.45,0,0,1,.54-.31l.44.14a.46.46,0,0,0,.56-.31.45.45,0,0,0-.31-.55l-.66-.2a.45.45,0,0,1-.26-.54.46.46,0,0,1,.52-.31l1.19.36a.45.45,0,0,0,.4-.78,7.07,7.07,0,0,0-5.79.57c-4,2.26-7.58,5.61.54,8l2.87.86A.46.46,0,0,0,211.9,69.38Z"/><path class="cls-4" d="M212.47,65.81a.38.38,0,0,1-.48.26.39.39,0,0,1-.26-.48.39.39,0,0,1,.48-.26A.38.38,0,0,1,212.47,65.81Z"/><circle class="cls-4" cx="213.8" cy="62.5" r="0.45" transform="translate(60.7 224.3) rotate(-62.88)"/><path class="cls-3" d="M212.71,60a7,7,0,0,1,4.11,8.55c-.06.19-.12.35-.18.49-.73,1.7-2.45,1.47-5.91.48,4.48,1.34,6.59,1.9,7.43,0,.06-.14.11-.3.17-.49A7.06,7.06,0,0,0,212.71,60Z"/><path class="cls-1" d="M194.4,38.7c5.3-3.58,3.38-11.8-2.93-12.89-4.56-.79-9.41-.42-4.63,6.56,3.58,5.21,5,7.72,7.11,6.6A3.82,3.82,0,0,0,194.4,38.7Z"/><path class="cls-2" d="M189.15,35a.45.45,0,0,0,.11-.62l-1.08-1.58a.45.45,0,0,1,.75-.48l.26.38a.45.45,0,0,0,.74-.5l-.39-.57a.44.44,0,0,1,.72-.51l.16.24a.45.45,0,0,0,.62.11.44.44,0,0,0,.12-.62L190.6,30a.44.44,0,0,1,.18-.45.45.45,0,0,1,.62.11l1.68,2.44a.45.45,0,1,0,.74-.5L192.74,30a.44.44,0,0,1,.13-.58.46.46,0,0,1,.62.1l.26.38a.44.44,0,0,0,.62.12.45.45,0,0,0,.11-.62l-.39-.57a.44.44,0,0,1,.73-.5l.71,1a.44.44,0,0,0,.62.12.45.45,0,0,0,.18-.46,7.08,7.08,0,0,0-4.86-3.21c-4.56-.79-9.41-.42-4.63,6.56.63.91,1.19,1.74,1.69,2.48A.46.46,0,0,0,189.15,35Z"/><path class="cls-4" d="M191.84,32.55a.38.38,0,1,1,.1-.53A.38.38,0,0,1,191.84,32.55Z"/><circle class="cls-4" cx="194.96" cy="30.82" r="0.45" transform="translate(4.17 81.4) rotate(-23.83)"/><path class="cls-3" d="M195.7,28.17a7,7,0,0,1-2.2,9.23,4.81,4.81,0,0,1-.44.27c-1.64.86-2.83-.4-4.89-3.36,2.63,3.87,3.92,5.63,5.78,4.66a3.82,3.82,0,0,0,.45-.27A7.06,7.06,0,0,0,195.7,28.17Z"/><path class="cls-1" d="M140.09,179.9a5.31,5.31,0,0,0-4.2-8.89c-3.43.17-6.9,1.22-2.3,5.51,3.44,3.2,4.84,4.8,6.22,3.64A3.2,3.2,0,0,0,140.09,179.9Z"/><path class="cls-2" d="M135.68,178a.32.32,0,0,0,0-.47l-1-1a.33.33,0,0,1,.46-.47l.25.23a.33.33,0,0,0,.46-.48l-.38-.35a.33.33,0,0,1,.44-.49l.16.15a.33.33,0,0,0,.47,0,.34.34,0,0,0,0-.47l-.54-.5a.34.34,0,0,1,.06-.36.33.33,0,0,1,.47,0l1.61,1.49a.33.33,0,0,0,.46-.48l-1-1a.34.34,0,0,1,0-.45.33.33,0,0,1,.46,0l.25.24a.34.34,0,0,0,.47,0,.33.33,0,0,0,0-.47l-.38-.35a.33.33,0,0,1,.45-.48l.67.63a.33.33,0,0,0,.47,0,.31.31,0,0,0,.06-.36,5.24,5.24,0,0,0-4-1.55c-3.43.17-6.9,1.22-2.3,5.51l1.63,1.53A.33.33,0,0,0,135.68,178Z"/><path class="cls-4" d="M137.25,175.85a.3.3,0,0,1-.41,0,.28.28,0,0,1,0-.4.28.28,0,0,1,.4,0A.29.29,0,0,1,137.25,175.85Z"/><circle class="cls-4" cx="139.23" cy="174.08" r="0.34" transform="matrix(0.81, -0.59, 0.59, 0.81, -76.11, 116.48)"/><path class="cls-3" d="M139.34,172a5.2,5.2,0,0,1-.11,7.06,3.18,3.18,0,0,1-.27.26c-1.06.89-2.13.17-4.09-1.64,2.53,2.38,3.75,3.45,4.94,2.44a3.2,3.2,0,0,0,.28-.26A5.26,5.26,0,0,0,139.34,172Z"/><path class="cls-1" d="M101.88,191.74a5.3,5.3,0,0,0-9.09,3.74c0,3.44.87,7,5.39,2.58,3.37-3.27,5-4.59,3.95-6A3,3,0,0,0,101.88,191.74Z"/><path class="cls-2" d="M99.79,196.05a.33.33,0,0,0-.47,0l-1,1a.35.35,0,0,1-.45,0,.34.34,0,0,1,0-.46l.25-.24a.33.33,0,0,0-.46-.48l-.37.36a.33.33,0,0,1-.45,0,.33.33,0,0,1,0-.44l.15-.14a.34.34,0,0,0,0-.47.33.33,0,0,0-.47,0l-.53.51a.33.33,0,0,1-.36-.08.34.34,0,0,1,0-.47l1.58-1.53a.33.33,0,0,0-.46-.48l-1,1a.34.34,0,0,1-.45,0,.35.35,0,0,1,0-.47l.25-.24a.33.33,0,0,0,0-.46.32.32,0,0,0-.47,0l-.37.35a.33.33,0,0,1-.46-.47l.66-.64a.32.32,0,0,0,0-.47.34.34,0,0,0-.36-.08,5.31,5.31,0,0,0-1.75,4c0,3.44.87,7,5.39,2.58l1.6-1.55A.33.33,0,0,0,99.79,196.05Z"/><path class="cls-4" d="M97.69,194.37a.29.29,0,0,1,0,.41.29.29,0,0,1-.4-.41A.3.3,0,0,1,97.69,194.37Z"/><circle class="cls-4" cx="96.03" cy="192.31" r="0.34" transform="translate(-90.11 84.81) rotate(-33.46)"/><path class="cls-3" d="M94,192.09a5.2,5.2,0,0,1,7,.46l.25.3c.83,1.09,0,2.12-1.85,4,2.5-2.41,3.63-3.58,2.69-4.82a3,3,0,0,0-.25-.29A5.25,5.25,0,0,0,94,192.09Z"/><path class="cls-1" d="M246.69,245a5.3,5.3,0,0,0-7.44-6.41c-3.08,1.54-5.82,3.91.13,6,4.43,1.54,6.37,2.43,7.16.81A3.28,3.28,0,0,0,246.69,245Z"/><path class="cls-2" d="M241.9,245.08a.34.34,0,0,0-.21-.42l-1.34-.47a.33.33,0,0,1-.18-.4.34.34,0,0,1,.42-.21l.32.11a.33.33,0,0,0,.22-.63l-.49-.16a.33.33,0,0,1-.17-.41.33.33,0,0,1,.38-.22l.2.07a.33.33,0,0,0,.42-.2.34.34,0,0,0-.2-.43l-.7-.24a.34.34,0,0,1-.09-.35.33.33,0,0,1,.42-.2l2.08.71a.34.34,0,0,0,.43-.2.34.34,0,0,0-.21-.43l-1.34-.46a.35.35,0,0,1-.18-.41.33.33,0,0,1,.41-.21l.33.12a.34.34,0,0,0,.42-.21.33.33,0,0,0-.2-.42l-.49-.17a.35.35,0,0,1-.18-.41.34.34,0,0,1,.4-.21l.87.3a.33.33,0,0,0,.42-.2.34.34,0,0,0-.09-.36,5.26,5.26,0,0,0-4.32.23c-3.08,1.54-5.82,3.91.13,6l2.1.74A.34.34,0,0,0,241.9,245.08Z"/><path class="cls-4" d="M242.45,242.45a.3.3,0,0,1-.37.18.29.29,0,0,1-.18-.36.3.3,0,0,1,.37-.18A.28.28,0,0,1,242.45,242.45Z"/><circle class="cls-4" cx="243.54" cy="240.04" r="0.34" transform="translate(-85.64 332.62) rotate(-60.29)"/><path class="cls-3" d="M242.82,238.13a5.2,5.2,0,0,1,2.76,6.49l-.15.36c-.6,1.23-1.87,1-4.4.15,3.28,1.15,4.83,1.63,5.51.23a3.28,3.28,0,0,0,.15-.36A5.25,5.25,0,0,0,242.82,238.13Z"/><path class="cls-1" d="M81.42,114.89a5.63,5.63,0,0,0-10.39-1c-1.73,3.22-2.67,7,3.75,5.11,4.8-1.38,7-1.78,6.73-3.68C81.49,115.18,81.46,115,81.42,114.89Z"/><path class="cls-2" d="M77.3,117.89a.35.35,0,0,0-.44-.24l-1.45.41a.35.35,0,0,1-.4-.24.36.36,0,0,1,.23-.44l.35-.1a.34.34,0,0,0,.24-.43.35.35,0,0,0-.43-.25l-.53.15a.35.35,0,0,1-.4-.24.36.36,0,0,1,.2-.43l.22-.06a.34.34,0,0,0,.24-.43.35.35,0,0,0-.43-.25l-.76.22a.35.35,0,0,1-.29-.25.35.35,0,0,1,.24-.44l2.25-.65a.35.35,0,1,0-.2-.67l-1.45.41a.35.35,0,0,1-.17-.68l.35-.1a.35.35,0,0,0,.24-.44.36.36,0,0,0-.43-.24l-.53.15a.34.34,0,0,1-.4-.25.35.35,0,0,1,.21-.42l.94-.27a.36.36,0,0,0,.25-.44.37.37,0,0,0-.3-.25A5.59,5.59,0,0,0,71,113.86c-1.73,3.22-2.67,7,3.75,5.11l2.29-.65A.35.35,0,0,0,77.3,117.89Z"/><path class="cls-4" d="M76.17,115.27a.29.29,0,0,1-.21.37.29.29,0,0,1-.37-.2.3.3,0,0,1,.2-.38A.3.3,0,0,1,76.17,115.27Z"/><circle class="cls-4" cx="75.65" cy="112.5" r="0.36" transform="translate(-10.19 7.56) rotate(-5.36)"/><path class="cls-3" d="M73.85,111.28a5.52,5.52,0,0,1,6.37,4c0,.15.07.28.09.4.23,1.44-1,2-3.74,2.82,3.56-1,5.2-1.53,4.94-3.17,0-.11-.05-.25-.09-.4A5.59,5.59,0,0,0,73.85,111.28Z"/><path class="cls-1" d="M112.7,217.51a5.63,5.63,0,0,0,10.19,2.29c2.11-3,3.5-6.58-3.11-5.53-4.92.78-7.19.91-7.12,2.83C112.67,217.22,112.68,217.36,112.7,217.51Z"/><path class="cls-2" d="M117.16,215a.35.35,0,0,0,.4.29l1.49-.24a.35.35,0,0,1,.09.7l-.36.06a.36.36,0,0,0-.3.4.37.37,0,0,0,.41.29l.54-.08a.35.35,0,0,1,.37.29.36.36,0,0,1-.26.4l-.22,0a.35.35,0,0,0-.29.41.35.35,0,0,0,.4.29l.78-.12a.36.36,0,0,1,.26.28.37.37,0,0,1-.3.41l-2.31.37a.35.35,0,0,0,.11.69l1.49-.23a.35.35,0,0,1,.38.29.36.36,0,0,1-.29.4l-.36.06a.35.35,0,0,0-.29.4.36.36,0,0,0,.4.3l.54-.09a.36.36,0,0,1,.37.3.35.35,0,0,1-.26.39l-1,.16a.35.35,0,0,0-.29.4.37.37,0,0,0,.26.29,5.6,5.6,0,0,0,3.94-2.38c2.11-3,3.5-6.58-3.11-5.53l-2.34.36A.36.36,0,0,0,117.16,215Z"/><path class="cls-4" d="M118,217.78a.29.29,0,0,1,.25-.35.3.3,0,0,1,.35.25.31.31,0,0,1-.25.35A.3.3,0,0,1,118,217.78Z"/><circle class="cls-4" cx="118.14" cy="220.59" r="0.36" transform="translate(-105.69 332.46) rotate(-88.38)"/><path class="cls-3" d="M119.77,222a5.54,5.54,0,0,1-5.84-4.71c0-.15,0-.29,0-.41,0-1.46,1.25-1.88,4.06-2.34-3.66.56-5.35.88-5.29,2.54,0,.12,0,.26,0,.41A5.59,5.59,0,0,0,119.77,222Z"/><path class="cls-1" d="M178,95.53c-2.76,3.71-1.1,5.73,3.75,7.1,6.08,1.72,10.57-2.32,8.79-6C188.6,92.71,181.78,90.4,178,95.53Z"/><path class="cls-2" d="M185.05,101.75a.44.44,0,0,0-.5-.38l-1.89.25a.45.45,0,0,1-.46-.39.45.45,0,0,1,.37-.5l.46-.06a.45.45,0,0,0,.38-.5.44.44,0,0,0-.5-.38l-.68.09a.45.45,0,0,1-.13-.88l.28,0a.44.44,0,0,0,.39-.5.45.45,0,0,0-.5-.38l-1,.13a.47.47,0,0,1-.32-.37.45.45,0,0,1,.39-.5l2.93-.39a.45.45,0,0,0,.39-.5.45.45,0,0,0-.5-.39l-1.9.25a.44.44,0,0,1-.09-.88l.46-.06a.45.45,0,1,0-.11-.89l-.69.09a.45.45,0,0,1-.46-.38.47.47,0,0,1,.35-.5l1.23-.16a.45.45,0,0,0,.38-.5.44.44,0,0,0-.32-.37c-1.89.18-3.27-.18-5.07,2.87-2.34,4-2.56,7.2.16,6.69,1.09-.21,4,1.29,6.57,0C184.89,102.14,185.08,102,185.05,101.75Z"/><path class="cls-4" d="M184.13,98.26a.38.38,0,0,1-.33.43.38.38,0,0,1-.1-.76A.38.38,0,0,1,184.13,98.26Z"/><circle class="cls-4" cx="183.99" cy="94.7" r="0.45" transform="translate(79.43 273.27) rotate(-86.88)"/><path class="cls-3" d="M182.47,92.63c3.39-.08,6.82,2.22,7.42,5.42.52,2.72-6.23,4.86-6.23,4.86,2.27.54,8.16-1.54,7.24-5.27C190.24,95,186.32,91.68,182.47,92.63Z"/><path class="cls-1" d="M9.43,151.37c-4.54.9-4.65,3.52-2,7.78,3.37,5.34,9.4,5.34,10.54,1.43C19.23,156.39,15.71,150.12,9.43,151.37Z"/><path class="cls-2" d="M10.55,160.74a.44.44,0,0,0-.12-.62L8.86,159a.43.43,0,0,1-.08-.59.43.43,0,0,1,.6-.12l.38.26a.45.45,0,0,0,.63-.12.46.46,0,0,0-.12-.62l-.57-.39a.44.44,0,0,1,.49-.73l.24.16a.45.45,0,0,0,.62-.11.44.44,0,0,0-.12-.62l-.81-.57a.44.44,0,0,1,0-.49.45.45,0,0,1,.62-.11l2.44,1.67a.45.45,0,0,0,.51-.73l-1.58-1.09a.44.44,0,0,1,.53-.71l.38.26a.45.45,0,1,0,.5-.74l-.56-.39a.44.44,0,0,1-.09-.59.46.46,0,0,1,.59-.14l1,.71a.45.45,0,0,0,.62-.12.44.44,0,0,0,0-.49c-1.52-1.13-2.32-2.32-5.69-1.25C5,152.76,2.71,155,5.08,156.44c.94.57,2.13,3.66,4.86,4.42C10.17,160.92,10.41,160.94,10.55,160.74Z"/><path class="cls-4" d="M12.2,157.52a.39.39,0,1,1-.1-.53A.39.39,0,0,1,12.2,157.52Z"/><circle class="cls-4" cx="14.48" cy="154.79" r="0.45" transform="translate(-105 55.33) rotate(-44.88)"/><path class="cls-3" d="M14.73,152.24c2.57,2.2,3.59,6.2,1.89,9-1.44,2.37-7.88-.56-7.88-.56,1.32,1.93,7.09,4.32,8.9.94C19,159.16,18.23,154.1,14.73,152.24Z"/><path class="cls-1" d="M172.43,162.37c-4.54.9-4.65,3.52-2,7.78,3.37,5.34,9.4,5.34,10.54,1.43C182.23,167.39,178.71,161.12,172.43,162.37Z"/><path class="cls-2" d="M173.55,171.74a.44.44,0,0,0-.12-.62L171.86,170a.43.43,0,0,1-.08-.59.43.43,0,0,1,.6-.12l.38.26a.45.45,0,0,0,.63-.12.46.46,0,0,0-.12-.62l-.57-.39a.44.44,0,0,1,.49-.73l.24.16a.45.45,0,0,0,.62-.11.44.44,0,0,0-.12-.62l-.81-.57a.44.44,0,0,1,0-.49.45.45,0,0,1,.62-.11l2.44,1.67a.45.45,0,1,0,.51-.73l-1.58-1.09a.44.44,0,0,1,.53-.71l.38.26a.45.45,0,1,0,.5-.74l-.56-.39a.44.44,0,0,1-.09-.59.46.46,0,0,1,.59-.14l1,.71a.45.45,0,0,0,.62-.12.44.44,0,0,0,0-.49c-1.52-1.13-2.32-2.32-5.69-1.25-4.41,1.39-6.72,3.63-4.35,5.07.94.57,2.13,3.66,4.86,4.42C173.17,171.92,173.41,171.94,173.55,171.74Z"/><path class="cls-4" d="M175.2,168.52a.39.39,0,1,1-.1-.53A.39.39,0,0,1,175.2,168.52Z"/><circle class="cls-4" cx="177.48" cy="165.79" r="0.45" transform="translate(-65.26 173.55) rotate(-44.88)"/><path class="cls-3" d="M177.73,163.24c2.57,2.2,3.59,6.2,1.89,9-1.44,2.37-7.88-.56-7.88-.56,1.32,1.93,7.09,4.32,8.9.94C182,170.16,181.23,165.1,177.73,163.24Z"/><path class="cls-1" d="M171.43,214.37c-4.54.9-4.65,3.52-2,7.78,3.37,5.34,9.4,5.34,10.54,1.43C181.23,219.39,177.71,213.12,171.43,214.37Z"/><path class="cls-2" d="M172.55,223.74a.44.44,0,0,0-.12-.62L170.86,222a.43.43,0,0,1-.08-.59.43.43,0,0,1,.6-.12l.38.26a.45.45,0,0,0,.63-.12.46.46,0,0,0-.12-.62l-.57-.39a.44.44,0,0,1,.49-.73l.24.16a.45.45,0,0,0,.62-.11.44.44,0,0,0-.12-.62l-.81-.57a.44.44,0,0,1,0-.49.45.45,0,0,1,.62-.11l2.44,1.67a.45.45,0,1,0,.51-.73l-1.58-1.09a.44.44,0,0,1,.53-.71l.38.26a.45.45,0,1,0,.5-.74l-.56-.39a.44.44,0,0,1-.09-.59.46.46,0,0,1,.59-.14l1,.71a.45.45,0,0,0,.62-.12.44.44,0,0,0,0-.49c-1.52-1.13-2.32-2.32-5.69-1.25-4.41,1.39-6.72,3.63-4.35,5.07.94.57,2.13,3.66,4.86,4.42C172.17,223.92,172.41,223.94,172.55,223.74Z"/><path class="cls-4" d="M174.2,220.52a.39.39,0,1,1-.1-.53A.39.39,0,0,1,174.2,220.52Z"/><circle class="cls-4" cx="176.48" cy="217.79" r="0.45" transform="translate(-102.25 188) rotate(-44.88)"/><path class="cls-3" d="M176.73,215.24c2.57,2.2,3.59,6.2,1.89,9-1.44,2.37-7.88-.56-7.88-.56,1.32,1.93,7.09,4.32,8.9.94C181,222.16,180.23,217.1,176.73,215.24Z"/><path class="cls-1" d="M59.47,19.18a7.73,7.73,0,0,1-5.34,7.35,8,8,0,0,1-5.47-.21,7.1,7.1,0,0,1-4-3.8,7.76,7.76,0,1,1,14.77-3.34Z"/><path class="cls-2" d="M48.4,19.22a.73.73,0,0,0,.43.66h1.94c.76.62.31,1.45-.32,1.45H50a.73.73,0,0,0-.65.71.72.72,0,0,0,.66.72h1.45c.75.62.3,1.45-.33,1.45h-.75a.73.73,0,0,0-.7.73.72.72,0,0,0,.65.71H54a1.57,1.57,0,0,1,.18.88,8,8,0,0,1-5.47-.21,7.1,7.1,0,0,1-4-3.8,7.75,7.75,0,0,1,8.41-10.95.88.88,0,0,1-.2,1.14h-2.4a.72.72,0,0,0-.66.72.73.73,0,0,0,.66.72H52c.72.64.28,1.45-.36,1.45h-.74a.73.73,0,0,0-.71.72.72.72,0,0,0,.66.71h3.43c.75.62.31,1.46-.33,1.46H49.12A.73.73,0,0,0,48.4,19.22Z"/><path class="cls-2" d="M57.34,17.86a.77.77,0,1,1-1.53,0,.77.77,0,0,1,1.53,0Z"/><path class="cls-2" d="M54.15,23.68a.76.76,0,0,1-1.52,0,.76.76,0,1,1,1.52,0Z"/><path class="cls-2" d="M54.71,14.89a.64.64,0,1,1-.63-.64A.64.64,0,0,1,54.71,14.89Z"/><path class="cls-3" d="M53.11,11.57a7.78,7.78,0,0,0-1.38-.13,7.62,7.62,0,0,0-1.18.1,2.13,2.13,0,0,1,.25,0,7.73,7.73,0,0,1,1,15,7.22,7.22,0,0,1-1.24.29,7.46,7.46,0,0,0,1.16.09,7.59,7.59,0,0,0,2.4-.38,7.73,7.73,0,0,0-1-15Z"/><path class="cls-1" d="M133.65,127.27a7.73,7.73,0,0,1-4.62-7.83,8,8,0,0,1,2.38-4.92,7,7,0,0,1,5.05-2.12,7.79,7.79,0,0,1,7.37,10.86,7.08,7.08,0,0,1-.67,1.21A7.72,7.72,0,0,1,133.65,127.27Z"/><path class="cls-2" d="M138,117.1a.72.72,0,0,0-.78.14l-.78,1.78h0c-.87.44-1.45-.3-1.2-.88l.19-.42a.74.74,0,0,0-.4-.88.73.73,0,0,0-.92.32l-.58,1.33h0c-.87.44-1.45-.3-1.2-.88l.3-.69a.73.73,0,0,0-.38-.93.71.71,0,0,0-.92.32l-1.45,3.32a1.46,1.46,0,0,1-.88-.19,8,8,0,0,1,2.38-4.92,7,7,0,0,1,5.05-2.12,7.79,7.79,0,0,1,7.37,10.86,7.08,7.08,0,0,1-.67,1.21c-.35.08-.74-.11-1-.64l1-2.2a.74.74,0,0,0-.4-.89.72.72,0,0,0-.92.32l-.59,1.34c-.87.41-1.44-.32-1.19-.9l.3-.68a.72.72,0,0,0-1.3-.62l-1.37,3.15c-.86.44-1.45-.3-1.2-.88l1.91-4.41A.73.73,0,0,0,138,117.1Z"/><path class="cls-2" d="M135.71,125.84a.76.76,0,1,1,1-.39A.76.76,0,0,1,135.71,125.84Z"/><path class="cls-2" d="M131.64,120.61a.77.77,0,0,1-.39-1,.76.76,0,0,1,1.4.61A.78.78,0,0,1,131.64,120.61Z"/><path class="cls-2" d="M139.48,124.62a.64.64,0,1,1,.84-.33A.64.64,0,0,1,139.48,124.62Z"/><path class="cls-3" d="M143.16,124.47a7.08,7.08,0,0,0,.67-1.21,8,8,0,0,0,.39-1.13,2.53,2.53,0,0,0-.13.22,7.73,7.73,0,0,1-14.13-5,7.92,7.92,0,0,1,.22-1.26,9.29,9.29,0,0,0-.54,1,8,8,0,0,0-.61,2.34,7.73,7.73,0,0,0,14.13,5Z"/><path class="cls-1" d="M121.92,19.94a4.74,4.74,0,0,1-.76,5.53,5,5,0,0,1-3,1.46,4.29,4.29,0,0,1-3.24-.9,4.79,4.79,0,0,1,.59-8,4.9,4.9,0,0,1,.79-.33A4.74,4.74,0,0,1,121.92,19.94Z"/><path class="cls-2" d="M115.94,23.17a.45.45,0,0,0,.43.23l1-.56h0a.47.47,0,0,1,.24.88l-.25.13a.44.44,0,0,0-.14.57.43.43,0,0,0,.56.2l.79-.42h0c.58.12.58.7.24.88l-.41.22a.45.45,0,0,0-.17.59.44.44,0,0,0,.57.2l2-1.05c.22.2.32.29.35.43a5,5,0,0,1-3,1.46,4.29,4.29,0,0,1-3.24-.9,4.79,4.79,0,0,1,.59-8,4.9,4.9,0,0,1,.79-.33.54.54,0,0,1,.21.68L115.2,19a.44.44,0,0,0,.41.78l.8-.43c.57.14.57.71.23.89l-.41.22a.44.44,0,0,0-.17.59.43.43,0,0,0,.56.2l1.86-1c.59.11.59.69.24.88l-2.6,1.39A.46.46,0,0,0,115.94,23.17Z"/><path class="cls-2" d="M120.39,19.84a.48.48,0,0,1-.2.64.47.47,0,0,1-.44-.83A.48.48,0,0,1,120.39,19.84Z"/><path class="cls-2" d="M120.35,23.91a.49.49,0,0,1-.19.64.47.47,0,1,1,.19-.64Z"/><path class="cls-2" d="M118.1,19a.39.39,0,1,1-.69.37.39.39,0,0,1,.69-.37Z"/><path class="cls-3" d="M116.28,17.66a4.9,4.9,0,0,0-.79.33,4.28,4.28,0,0,0-.61.4l.14-.06a4.75,4.75,0,0,1,4.89,7.81,4.8,4.8,0,0,1-.59.51,3.4,3.4,0,0,0,.65-.29,4.46,4.46,0,0,0,1.19-.89,4.75,4.75,0,0,0-4.88-7.81Z"/><path class="cls-1" d="M61.56,169.13a4.33,4.33,0,0,1-.7,5.05,4.52,4.52,0,0,1-2.75,1.34,4,4,0,0,1-3-.83,4.37,4.37,0,0,1,.55-7.34,4.87,4.87,0,0,1,.71-.3A4.34,4.34,0,0,1,61.56,169.13Z"/><path class="cls-2" d="M56.09,172.08a.39.39,0,0,0,.39.21l1-.51h0c.54.11.54.64.23.8l-.23.13a.4.4,0,0,0-.13.52.4.4,0,0,0,.52.18l.71-.38h0c.54.1.54.63.22.8l-.37.2a.4.4,0,0,0,.36.72l1.79-1c.21.18.29.27.32.39a4.52,4.52,0,0,1-2.75,1.34,4,4,0,0,1-3-.83,4.37,4.37,0,0,1,.55-7.34,4.87,4.87,0,0,1,.71-.3.49.49,0,0,1,.2.62l-1.19.63a.41.41,0,0,0-.13.53.4.4,0,0,0,.51.18l.73-.38c.53.12.52.64.21.81l-.37.19a.41.41,0,0,0,.36.73l1.7-.91c.53.11.53.64.22.81l-2.38,1.27A.41.41,0,0,0,56.09,172.08Z"/><path class="cls-2" d="M60.16,169a.43.43,0,0,1-.18.58.42.42,0,0,1-.58-.17.43.43,0,0,1,.18-.58A.43.43,0,0,1,60.16,169Z"/><path class="cls-2" d="M60.12,172.76a.43.43,0,0,1-.75.41.43.43,0,1,1,.75-.41Z"/><path class="cls-2" d="M58.07,168.27a.36.36,0,0,1-.63.34.36.36,0,1,1,.63-.34Z"/><path class="cls-3" d="M56.4,167.05a4.87,4.87,0,0,0-.71.3,5.5,5.5,0,0,0-.57.36l.14-.05a4.34,4.34,0,0,1,4.46,7.14,4.14,4.14,0,0,1-.54.47,3.24,3.24,0,0,0,.6-.27,4.05,4.05,0,0,0,1.08-.82,4.33,4.33,0,0,0-4.46-7.13Z"/></svg>