<svg xmlns="http://www.w3.org/2000/svg" viewBox="0 0 32.37 29"><defs><style>.cls-1{fill:#aab5b5;}.cls-2{fill:#d9dbdb;}.cls-3{fill:#566868;opacity:0.29;}</style></defs><title>Asset 7</title><g id="Layer_2" data-name="Layer 2"><g id="Layer_1-2" data-name="Layer 1"><path class="cls-1" d="M28.57,6.32S17.24-5.14,9.06,2.8-3.47,22.27,3.43,27.48,43.44,24.29,28.57,6.32Z"/><path class="cls-2" d="M8.31,27.43a1.23,1.23,0,0,1,.28-2.24l4.16,1.18a1.24,1.24,0,0,0,1.52-.86A1.22,1.22,0,0,0,13.42,24L7.2,22.23a1.23,1.23,0,0,1,.74-2.33l7.84,2.21a1.23,1.23,0,1,0,.67-2.37L9.79,17.85a1.21,1.21,0,0,1-.3-1.18A1.24,1.24,0,0,1,11,15.81l9.23,2.59A1.23,1.23,0,0,0,20.91,16L8.11,12.41a1.24,1.24,0,0,1,.65-2.3l5.48,1.55a1.23,1.23,0,1,0,.67-2.37L14,9a1.23,1.23,0,0,1,.67-2.37l-.07,0L19,7.82a1.23,1.23,0,1,0,.67-2.37L14.66,4a1.25,1.25,0,0,1-.57-1.4,1.25,1.25,0,0,1,1.11-.89l2.45.7a1.25,1.25,0,0,0,1.53-.86A1.2,1.2,0,0,0,18.93.46,9.66,9.66,0,0,0,9.06,2.8C.88,10.74-3.47,22.27,3.43,27.48c1.84,1.39,5.57,1.81,9.76,1.33Z"/><path class="cls-2" d="M25.42,18.69A1.22,1.22,0,0,1,23.08,18a1.22,1.22,0,1,1,2.34.66Z"/><path class="cls-2" d="M24,8.16a1.21,1.21,0,1,1-.83-1.5A1.2,1.2,0,0,1,24,8.16Z"/><path class="cls-2" d="M17.37,26.38A1.12,1.12,0,1,1,16.6,25,1.11,1.11,0,0,1,17.37,26.38Z"/><path class="cls-3" d="M28.57,6.32S22.3,0,15.72,0a26.18,26.18,0,0,1,8.4,5.46C36.4,20.31,16,28.61,4.58,28.13,13.36,31.86,42.74,23.43,28.57,6.32Z"/></g></g></svg>