<svg xmlns="http://www.w3.org/2000/svg" xmlns:xlink="http://www.w3.org/1999/xlink" viewBox="0 0 74.34 49.96"><defs><style>.cls-1{fill:none;}.cls-2{fill:#69c1f7;}.cls-3{fill:#8ccfff;}.cls-4{fill:#fff;}.cls-5{fill:url(#New_Pattern_Swatch_6);}.cls-6{fill:#cceaff;}.cls-7{clip-path:url(#clip-path);}.cls-8{fill:#ff6b00;}.cls-9{fill:#46c325;}</style><pattern id="New_Pattern_Swatch_6" data-name="New Pattern Swatch 6" width="146" height="146" patternTransform="translate(82 82)" patternUnits="userSpaceOnUse" viewBox="0 0 146 146"><rect class="cls-1" width="146" height="146"/><rect class="cls-2" width="146" height="146"/></pattern><clipPath id="clip-path"><rect class="cls-1" x="29.68" y="14.15" width="15.34" height="35.85" rx="1" ry="1"/></clipPath></defs><title>Asset 10</title><g id="Layer_2" data-name="Layer 2"><g id="Layer_1-2" data-name="Layer 1"><polygon class="cls-3" points="10.01 25.14 9.43 22.51 4.5 21.99 4.96 24.07 10.01 25.14"/><polygon class="cls-3" points="16.21 26.45 15.48 23.16 10.23 22.6 10.84 25.31 16.21 26.45"/><polygon class="cls-3" points="1.52 24.13 2.35 28.63 5.26 28.93 4.32 24.72 1.52 24.13"/><polygon class="cls-3" points="3.7 21.9 1.06 21.62 1.37 23.31 4.14 23.89 3.7 21.9"/><polygon class="cls-3" points="22.33 27.74 21.45 23.8 16.29 23.24 17.04 26.62 22.33 27.74"/><path class="cls-3" d="M26.09,28.53l-.64-3.45a1.19,1.19,0,0,0-1.05-1l-2.14-.23.9,4Z"/><polygon class="cls-3" points="17.22 27.44 17.85 30.28 23.02 30.83 22.52 28.56 17.22 27.44"/><polygon class="cls-3" points="23.83 30.91 26.58 31.21 26.24 29.35 23.34 28.73 23.83 30.91"/><polygon class="cls-3" points="11.02 26.13 11.8 29.63 17.05 30.19 16.39 27.27 11.02 26.13"/><polygon class="cls-3" points="5.15 24.89 6.07 29.02 10.99 29.55 10.2 25.96 5.15 24.89"/><polygon class="cls-4" points="23.16 27.91 22.26 23.88 21.45 23.8 22.33 27.74 17.04 26.62 16.29 23.24 15.48 23.16 16.21 26.45 10.84 25.31 10.23 22.6 9.43 22.51 10.01 25.14 4.96 24.07 4.5 21.99 3.7 21.9 4.14 23.89 1.37 23.31 1.52 24.13 4.32 24.72 5.26 28.93 6.07 29.02 5.15 24.89 10.2 25.96 10.99 29.55 11.8 29.63 11.02 26.13 16.39 27.27 17.05 30.19 17.85 30.28 17.22 27.44 22.52 28.56 23.02 30.83 23.83 30.91 23.34 28.73 26.24 29.35 26.09 28.53 23.16 27.91"/><path class="cls-5" d="M2.35,28.63l-1.29-7L0,21.51l1.32,7.13a1.37,1.37,0,0,0,1.2,1.12l24.27,2.58-.21-1.13Z"/><polygon class="cls-3" points="57.56 29.12 56.97 26.5 52.05 25.98 52.51 28.06 57.56 29.12"/><polygon class="cls-3" points="63.76 30.43 63.03 27.15 57.78 26.59 58.38 29.3 63.76 30.43"/><polygon class="cls-3" points="49.07 28.11 49.9 32.61 52.81 32.92 51.87 28.7 49.07 28.11"/><polygon class="cls-3" points="51.24 25.89 48.61 25.61 48.92 27.3 51.69 27.88 51.24 25.89"/><polygon class="cls-3" points="69.88 31.73 69 27.78 63.83 27.23 64.58 30.61 69.88 31.73"/><path class="cls-3" d="M73.64,32.52,73,29.07a1.19,1.19,0,0,0-1-1l-2.14-.23.89,4Z"/><polygon class="cls-3" points="64.77 31.43 65.4 34.27 70.57 34.82 70.06 32.55 64.77 31.43"/><polygon class="cls-3" points="71.37 34.9 74.13 35.2 73.79 33.34 70.89 32.72 71.37 34.9"/><polygon class="cls-3" points="58.57 30.12 59.34 33.62 64.59 34.18 63.94 31.25 58.57 30.12"/><polygon class="cls-3" points="52.69 28.88 53.61 33.01 58.54 33.53 57.74 29.95 52.69 28.88"/><polygon class="cls-4" points="70.7 31.9 69.81 27.87 69 27.78 69.88 31.73 64.58 30.61 63.83 27.23 63.03 27.15 63.76 30.43 58.38 29.3 57.78 26.59 56.97 26.5 57.56 29.12 52.51 28.06 52.05 25.98 51.24 25.89 51.69 27.88 48.92 27.3 49.07 28.11 51.87 28.7 52.81 32.92 53.61 33.01 52.69 28.88 57.74 29.95 58.54 33.53 59.34 33.62 58.57 30.12 63.94 31.25 64.59 34.18 65.4 34.27 64.77 31.43 70.06 32.55 70.57 34.82 71.37 34.9 70.89 32.72 73.79 33.34 73.64 32.52 70.7 31.9"/><path class="cls-5" d="M49.9,32.61l-1.29-7-1.06-.11,1.31,7.13a1.36,1.36,0,0,0,1.2,1.11l24.28,2.59-.21-1.13Z"/><path class="cls-5" d="M41.92,2.44,41.53.31a.38.38,0,0,0-.71-.12l0,0a.35.35,0,0,1,.37.29l.4,2.13.52,2.84.32.06a.06.06,0,0,0,.07-.08Z"/><path class="cls-3" d="M41.17.53A.35.35,0,0,0,40.8.24L39.74,2.06,38.19,4.74a.07.07,0,0,0,.05.1l2.08.36,1.77.3-.52-2.84Z"/><path class="cls-5" d="M52,6.06c-2.63,3.32-8.06,5.08-13.91,4.09a17.22,17.22,0,0,1-9.31-4.56,16.48,16.48,0,0,0,10.29,5.68c6,1,11.45-.82,14-4.24a.53.53,0,0,0-.33-.84Z"/><path class="cls-6" d="M52,6.06,28,2a.66.66,0,0,0-.73.42.69.69,0,0,1,.35,0l24,4a5.18,5.18,0,0,1-.44.51A9.84,9.84,0,0,0,52,6.06Z"/><path class="cls-3" d="M27.62,2.4a.69.69,0,0,0-.35,0,.58.58,0,0,0,0,.45,9.77,9.77,0,0,0,1.5,2.7,17.22,17.22,0,0,0,9.31,4.56c5.3.89,10.25-.47,13.08-3.2a5.18,5.18,0,0,0,.44-.51Z"/><g class="cls-7"><polygon class="cls-5" points="29.59 14.19 29.59 14.32 43.45 15.41 43.45 48.9 29.59 48.55 29.59 49.96 45.12 49.96 45.12 14.19 29.59 14.19"/><polygon class="cls-3" points="43.45 15.41 29.59 14.32 29.59 48.55 43.45 48.9 43.45 15.41"/></g><circle class="cls-8" cx="32.85" cy="19.12" r="1.53"/><circle class="cls-9" cx="32.85" cy="24.04" r="1.53"/></g></g></svg>