<svg xmlns="http://www.w3.org/2000/svg" xmlns:xlink="http://www.w3.org/1999/xlink" viewBox="0 0 96.94 65.2"><defs><style>.cls-1{fill:none;}.cls-2{fill:#db5419;}.cls-3{fill:#f99164;}.cls-4{fill:url(#New_Pattern_Swatch_16);}.cls-5{fill:#fff;}.cls-6{fill:url(#New_Pattern_Swatch_14);}.cls-7{fill:#f7c172;}.cls-8{clip-path:url(#clip-path);}.cls-9{fill:#ff6b00;}.cls-10{fill:#46c325;}.cls-11{clip-path:url(#clip-path-2);}.cls-12{fill:#ffdc7b;}.cls-13{fill:#ffcf3b;}.cls-14{fill:#f9be19;}</style><pattern id="New_Pattern_Swatch_16" data-name="New Pattern Swatch 16" width="146" height="146" patternUnits="userSpaceOnUse" viewBox="0 0 146 146"><rect class="cls-1" width="146" height="146"/><rect class="cls-3" width="146" height="146"/></pattern><pattern id="New_Pattern_Swatch_14" data-name="New Pattern Swatch 14" width="146" height="146" patternUnits="userSpaceOnUse" viewBox="0 0 146 146"><rect class="cls-1" width="146" height="146"/><rect class="cls-2" width="146" height="146"/></pattern><clipPath id="clip-path"><rect class="cls-1" x="38.71" y="18.45" width="20" height="46.75" rx="1" ry="1"/></clipPath><clipPath id="clip-path-2"><rect class="cls-1" x="-382.92" y="-546.24" width="500" height="500"/></clipPath></defs><title>Artboard 1</title><g id="BACKGROUND_2" data-name="BACKGROUND 2"><polygon class="cls-4" points="13.05 32.77 12.29 29.36 5.87 28.67 6.47 31.39 13.05 32.77"/><polygon class="cls-4" points="21.14 34.48 20.19 30.2 13.34 29.47 14.13 33 21.14 34.48"/><polygon class="cls-4" points="1.98 31.46 3.07 37.33 6.86 37.73 5.64 32.23 1.98 31.46"/><polygon class="cls-4" points="4.82 28.56 1.38 28.19 1.79 30.39 5.4 31.16 4.82 28.56"/><polygon class="cls-4" points="29.12 36.17 27.98 31.03 21.23 30.31 22.21 34.71 29.12 36.17"/><path class="cls-4" d="M34,37.2l-.83-4.5a1.56,1.56,0,0,0-1.37-1.26L29,31.14,30.2,36.4Z"/><polygon class="cls-4" points="22.45 35.78 23.28 39.48 30.02 40.2 29.36 37.24 22.45 35.78"/><polygon class="cls-4" points="31.07 40.31 34.66 40.69 34.22 38.27 30.44 37.47 31.07 40.31"/><polygon class="cls-4" points="14.37 34.08 15.39 38.64 22.23 39.37 21.38 35.56 14.37 34.08"/><polygon class="cls-4" points="6.71 32.46 7.91 37.84 14.34 38.53 13.29 33.85 6.71 32.46"/><polygon class="cls-5" points="30.2 36.4 29.03 31.14 27.98 31.03 29.12 36.17 22.21 34.71 21.23 30.31 20.19 30.2 21.14 34.48 14.13 33 13.34 29.47 12.29 29.36 13.05 32.77 6.47 31.39 5.87 28.67 4.82 28.56 5.4 31.16 1.79 30.39 1.98 31.46 5.64 32.23 6.86 37.73 7.91 37.84 6.71 32.46 13.29 33.85 14.34 38.53 15.39 38.64 14.37 34.08 21.38 35.56 22.23 39.37 23.28 39.48 22.45 35.78 29.36 37.24 30.02 40.2 31.07 40.31 30.44 37.47 34.22 38.27 34.02 37.2 30.2 36.4"/><path class="cls-6" d="M3.07,37.33,1.38,28.19,0,28.05l1.72,9.3A1.77,1.77,0,0,0,3.28,38.8l31.66,3.38-.28-1.49Z"/><polygon class="cls-4" points="75.06 37.98 74.29 34.56 67.87 33.87 68.47 36.59 75.06 37.98"/><polygon class="cls-4" points="83.14 39.68 82.19 35.4 75.34 34.67 76.13 38.2 83.14 39.68"/><polygon class="cls-4" points="63.98 36.66 65.07 42.53 68.86 42.93 67.64 37.43 63.98 36.66"/><polygon class="cls-4" points="66.82 33.76 63.38 33.4 63.79 35.59 67.4 36.36 66.82 33.76"/><polygon class="cls-4" points="91.12 41.37 89.98 36.23 83.23 35.51 84.22 39.91 91.12 41.37"/><path class="cls-4" d="M96,42.41l-.83-4.5a1.56,1.56,0,0,0-1.37-1.27L91,36.34,92.2,41.6Z"/><polygon class="cls-4" points="84.45 40.98 85.28 44.68 92.02 45.4 91.36 42.44 84.45 40.98"/><polygon class="cls-4" points="93.07 45.51 96.66 45.9 96.22 43.47 92.44 42.67 93.07 45.51"/><polygon class="cls-4" points="76.37 39.27 77.39 43.84 84.23 44.57 83.38 40.76 76.37 39.27"/><polygon class="cls-4" points="68.71 37.66 69.91 43.04 76.34 43.73 75.29 39.05 68.71 37.66"/><polygon class="cls-5" points="92.2 41.6 91.03 36.34 89.98 36.23 91.12 41.37 84.22 39.91 83.23 35.51 82.19 35.4 83.14 39.68 76.13 38.2 75.34 34.67 74.29 34.56 75.06 37.98 68.47 36.59 67.87 33.87 66.82 33.76 67.4 36.36 63.79 35.59 63.98 36.66 67.64 37.43 68.86 42.93 69.91 43.04 68.71 37.66 75.29 39.05 76.34 43.73 77.39 43.84 76.37 39.27 83.38 40.76 84.23 44.57 85.28 44.68 84.45 40.98 91.36 42.44 92.02 45.4 93.07 45.51 92.44 42.67 96.22 43.47 96.02 42.41 92.2 41.6"/><path class="cls-6" d="M65.07,42.53l-1.69-9.14L62,33.25l1.72,9.3A1.77,1.77,0,0,0,65.28,44l31.66,3.38-.28-1.49Z"/><path class="cls-6" d="M54.66,3.18,54.15.4a.5.5,0,0,0-.92-.15l0,.06a.47.47,0,0,1,.49.39l.51,2.77.69,3.71.41.07a.08.08,0,0,0,.09-.1Z"/><path class="cls-4" d="M53.69.7A.47.47,0,0,0,53.2.31L51.82,2.69l-2,3.5a.08.08,0,0,0,.06.12l2.71.47,2.31.4L54.2,3.47Z"/><path class="cls-6" d="M67.78,7.9c-3.43,4.33-10.5,6.62-18.14,5.33A22.32,22.32,0,0,1,37.51,7.28c2.77,3.6,7.6,6.43,13.41,7.41,7.75,1.31,14.94-1.07,18.3-5.53a.69.69,0,0,0-.44-1.09Z"/><path class="cls-7" d="M67.78,7.9,36.51,2.63a.87.87,0,0,0-.95.55A.79.79,0,0,1,36,3.13L67.28,8.4c-.18.23-.38.44-.58.66A11.78,11.78,0,0,0,67.78,7.9Z"/><path class="cls-4" d="M36,3.13a.79.79,0,0,0-.46.05.85.85,0,0,0,0,.59,12.93,12.93,0,0,0,2,3.51,22.32,22.32,0,0,0,12.13,6C56.56,14.4,63,12.62,66.7,9.06c.2-.22.4-.43.58-.66Z"/><g class="cls-8"><polygon class="cls-6" points="38.58 18.51 38.58 18.68 56.66 20.09 56.66 63.76 38.58 63.31 38.58 65.14 58.83 65.14 58.83 18.51 38.58 18.51"/><polygon class="cls-4" points="56.66 20.09 38.58 18.68 38.58 63.31 56.66 63.76 56.66 20.09"/></g><circle class="cls-9" cx="42.83" cy="24.93" r="2"/><circle class="cls-10" cx="42.83" cy="31.34" r="2"/></g><g id="BACKGROUND_1" data-name="BACKGROUND 1"><g class="cls-11"><circle class="cls-12" cx="-131.53" cy="80.4" r="232.56" transform="translate(-95.38 -69.46) rotate(-45)"/><circle class="cls-13" cx="-131.53" cy="80.4" r="221.74" transform="translate(-95.38 -69.46) rotate(-45)"/><path class="cls-14" d="M73,80.4A204.61,204.61,0,0,1-64.85,273.81a204.21,204.21,0,0,1-65.68,11.12h-1A204,204,0,0,1-201,272.83a201.34,201.34,0,0,1-29.5-13.39,204.46,204.46,0,0,1-105.59-179A204.46,204.46,0,0,1-234.54-96.34a203.58,203.58,0,0,1,103-27.79,204.57,204.57,0,0,1,54.68,7.39C9.56-92.83,73-13.62,73,80.4Z"/></g></g></svg>