<svg id="Layer_1" data-name="Layer 1" xmlns="http://www.w3.org/2000/svg" xmlns:xlink="http://www.w3.org/1999/xlink" viewBox="0 0 75 75"><defs><style>.cls-1{fill:none;}.cls-2{fill:#db5419;}.cls-3{fill:#f99164;}.cls-4{fill:url(#New_Pattern_Swatch_16);}.cls-5{fill:#fff;}.cls-6{fill:url(#New_Pattern_Swatch_14);}.cls-7{fill:#f7c172;}.cls-8{clip-path:url(#clip-path);}.cls-9{fill:#ff6b00;}.cls-10{fill:#46c325;}</style><pattern id="New_Pattern_Swatch_16" data-name="New Pattern Swatch 16" width="146" height="146" patternTransform="translate(82 82)" patternUnits="userSpaceOnUse" viewBox="0 0 146 146"><rect class="cls-1" width="146" height="146"/><rect class="cls-3" width="146" height="146"/></pattern><pattern id="New_Pattern_Swatch_14" data-name="New Pattern Swatch 14" width="146" height="146" patternTransform="translate(82 82)" patternUnits="userSpaceOnUse" viewBox="0 0 146 146"><rect class="cls-1" width="146" height="146"/><rect class="cls-2" width="146" height="146"/></pattern><clipPath id="clip-path"><rect class="cls-1" x="30.01" y="25.65" width="15.34" height="35.85" rx="1" ry="1"/></clipPath></defs><title>vArtboard 2</title><polygon class="cls-4" points="11.34 36.63 10.76 34.01 5.83 33.49 6.29 35.57 11.34 36.63"/><polygon class="cls-4" points="17.54 37.95 16.81 34.66 11.56 34.1 12.17 36.81 17.54 37.95"/><polygon class="cls-4" points="2.85 35.63 3.68 40.13 6.59 40.44 5.65 36.22 2.85 35.63"/><polygon class="cls-4" points="5.03 33.4 2.39 33.12 2.7 34.81 5.47 35.39 5.03 33.4"/><polygon class="cls-4" points="23.66 39.24 22.79 35.3 17.62 34.74 18.37 38.12 23.66 39.24"/><path class="cls-4" d="M27.42,40l-.64-3.45a1.19,1.19,0,0,0-1-1l-2.15-.23.9,4Z"/><polygon class="cls-4" points="18.55 38.94 19.18 41.78 24.35 42.33 23.85 40.06 18.55 38.94"/><polygon class="cls-4" points="25.16 42.41 27.91 42.71 27.57 40.85 24.67 40.23 25.16 42.41"/><polygon class="cls-4" points="12.35 37.63 13.13 41.13 18.38 41.69 17.73 38.77 12.35 37.63"/><polygon class="cls-4" points="6.48 36.39 7.4 40.52 12.32 41.05 11.53 37.46 6.48 36.39"/><polygon class="cls-5" points="24.49 39.41 23.59 35.38 22.79 35.3 23.66 39.24 18.37 38.12 17.62 34.74 16.81 34.66 17.54 37.95 12.17 36.81 11.56 34.1 10.76 34.01 11.34 36.63 6.29 35.57 5.83 33.49 5.03 33.4 5.47 35.39 2.7 34.81 2.85 35.63 5.65 36.22 6.59 40.44 7.4 40.52 6.48 36.39 11.53 37.46 12.32 41.05 13.13 41.13 12.35 37.63 17.73 38.77 18.38 41.69 19.18 41.78 18.55 38.94 23.85 40.06 24.35 42.33 25.16 42.41 24.67 40.23 27.57 40.85 27.42 40.03 24.49 39.41"/><path class="cls-6" d="M3.68,40.13l-1.29-7L1.33,33l1.32,7.13a1.37,1.37,0,0,0,1.2,1.12l24.27,2.58-.21-1.13Z"/><polygon class="cls-4" points="56.89 40.62 56.3 38 51.38 37.48 51.84 39.56 56.89 40.62"/><polygon class="cls-4" points="63.09 41.93 62.36 38.65 57.11 38.09 57.71 40.8 63.09 41.93"/><polygon class="cls-4" points="48.4 39.61 49.23 44.11 52.14 44.42 51.2 40.2 48.4 39.61"/><polygon class="cls-4" points="50.57 37.39 47.94 37.11 48.25 38.8 51.02 39.38 50.57 37.39"/><polygon class="cls-4" points="69.21 43.23 68.33 39.28 63.16 38.73 63.91 42.11 69.21 43.23"/><path class="cls-4" d="M73,44l-.64-3.45a1.19,1.19,0,0,0-1-1l-2.14-.23.9,4Z"/><polygon class="cls-4" points="64.1 42.93 64.73 45.77 69.9 46.32 69.39 44.05 64.1 42.93"/><polygon class="cls-4" points="70.7 46.4 73.46 46.7 73.12 44.84 70.22 44.22 70.7 46.4"/><polygon class="cls-4" points="57.9 41.62 58.68 45.12 63.92 45.68 63.27 42.76 57.9 41.62"/><polygon class="cls-4" points="52.02 40.38 52.94 44.51 57.87 45.03 57.07 41.45 52.02 40.38"/><polygon class="cls-5" points="70.03 43.4 69.14 39.37 68.33 39.28 69.21 43.23 63.91 42.11 63.16 38.73 62.36 38.65 63.09 41.93 57.71 40.8 57.11 38.09 56.3 38 56.89 40.62 51.84 39.56 51.38 37.48 50.57 37.39 51.02 39.38 48.25 38.8 48.4 39.61 51.2 40.2 52.14 44.42 52.94 44.51 52.02 40.38 57.07 41.45 57.87 45.03 58.68 45.12 57.9 41.62 63.27 42.76 63.92 45.68 64.73 45.77 64.1 42.93 69.39 44.05 69.9 46.32 70.7 46.4 70.22 44.22 73.12 44.84 72.97 44.02 70.03 43.4"/><path class="cls-6" d="M49.23,44.11l-1.29-7L46.88,37l1.31,7.13a1.36,1.36,0,0,0,1.2,1.11l24.28,2.59-.21-1.13Z"/><path class="cls-6" d="M42.25,13.94l-.39-2.13a.38.38,0,0,0-.7-.12l0,.05a.35.35,0,0,1,.37.29l.4,2.13L42.42,17l.32.06a.06.06,0,0,0,.07-.08Z"/><path class="cls-4" d="M41.5,12a.35.35,0,0,0-.37-.29l-1.06,1.82-1.54,2.68a.07.07,0,0,0,0,.1l2.08.36,1.77.3-.52-2.84Z"/><path class="cls-6" d="M52.31,17.56c-2.63,3.32-8.06,5.08-13.91,4.09a17.22,17.22,0,0,1-9.31-4.56,16.48,16.48,0,0,0,10.29,5.68c5.95,1,11.46-.82,14-4.24a.53.53,0,0,0-.34-.84Z"/><path class="cls-7" d="M52.31,17.56l-24-4a.66.66,0,0,0-.73.42.69.69,0,0,1,.35,0l24,4c-.14.18-.29.34-.44.51A11.37,11.37,0,0,0,52.31,17.56Z"/><path class="cls-4" d="M28,13.9a.69.69,0,0,0-.35,0,.63.63,0,0,0,0,.45,10,10,0,0,0,1.5,2.7,17.22,17.22,0,0,0,9.31,4.56c5.3.89,10.25-.47,13.09-3.2.15-.17.3-.33.44-.51Z"/><g class="cls-8"><polygon class="cls-6" points="29.92 25.69 29.92 25.82 43.78 26.91 43.78 60.4 29.92 60.05 29.92 61.46 45.45 61.46 45.45 25.69 29.92 25.69"/><polygon class="cls-4" points="43.78 26.91 29.92 25.82 29.92 60.05 43.78 60.4 43.78 26.91"/></g><circle class="cls-9" cx="33.18" cy="30.62" r="1.53"/><circle class="cls-10" cx="33.18" cy="35.54" r="1.53"/></svg>