<svg xmlns="http://www.w3.org/2000/svg" viewBox="0 0 74.99 75"><defs><style>.cls-1{fill:#8ccfff;}.cls-2{fill:#f9be19;}.cls-3,.cls-5{fill:#f4891e;}.cls-4{fill:#f7a31c;}.cls-5{opacity:0.75;}</style></defs><title>Asset 14</title><g id="Layer_2" data-name="Layer 2"><g id="Layer_1-2" data-name="Layer 1"><circle class="cls-1" cx="37.5" cy="37.5" r="37.5" transform="translate(-15.53 37.5) rotate(-45)"/><path class="cls-2" d="M75,37.5A37.49,37.49,0,0,1,21,71.15c-.9-.45-1.79-.93-2.65-1.44A37.59,37.59,0,0,1,3.08,52.4a36.35,36.35,0,0,1-2.43-8A36.87,36.87,0,0,1,0,37.5a37.5,37.5,0,1,1,75,0Z"/><path class="cls-3" d="M68.36,16.2a43,43,0,0,1-11.55,7.88C39.9,32.41,9.11,26.32.64,44.44A37.8,37.8,0,0,1,0,37.5,37.48,37.48,0,0,1,37.5,0,37.52,37.52,0,0,1,68.36,16.2Z"/><path class="cls-4" d="M75,37.5A37.49,37.49,0,0,1,21,71.15c2.76-11.93,13.72-22.11,23.69-24,12.07-2.3,22.59-9.84,29.76-16.33A37.75,37.75,0,0,1,75,37.5Z"/><path class="cls-4" d="M34.28,13.93c-13.39,5.74-23.74,6.16-31.51,9.41A37.49,37.49,0,0,1,43,.4C43.91,5,42.61,10.36,34.28,13.93Z"/><path class="cls-5" d="M74.4,30.81A37.52,37.52,0,0,0,37.49,0a37.86,37.86,0,0,0-10,1.37A37.53,37.53,0,0,1,62.2,32.11a37.86,37.86,0,0,1,.59,6.7A37.5,37.5,0,0,1,35.33,74.94q1.08.06,2.16.06A37.56,37.56,0,0,0,74.4,30.81Z"/></g></g></svg>