<svg xmlns="http://www.w3.org/2000/svg" viewBox="0 0 146.59 100"><defs><style>.cls-1{fill:#1ad8d8;}.cls-2{fill:#0cc1bc;}.cls-3,.cls-7{fill:#05aaa1;}.cls-4,.cls-5,.cls-6{fill:#21d8cf;}.cls-5{opacity:0.54;}.cls-6{opacity:0.7;}.cls-7{opacity:0.67;}.cls-8{fill:#65efe5;}</style></defs><title>Asset 13</title><g id="Layer_2" data-name="Layer 2"><g id="Layer_1-2" data-name="Layer 1"><path class="cls-1" d="M104.51,66.72l-.34.63c-2.94,1.79-13.81,6.56-22,7.08-5.83.38-13.09,5.29-18.38,9.57A34.92,34.92,0,0,1,47.32,73.27c6-3,15.9-7,26.65-6.5C91.23,67.57,101.35,67.36,104.51,66.72Z"/><path class="cls-2" d="M107.84,44.45a34.22,34.22,0,0,1-.29,14,34.77,34.77,0,0,1-3,8.31c-5.16,1-12,1.8-21.31,2.68A93.77,93.77,0,0,0,52.2,78a34.54,34.54,0,0,1-7.72-8.52,42.37,42.37,0,0,1,25.7-9.62C82.47,59.54,97.11,52.18,107.84,44.45Z"/><path class="cls-3" d="M107.23,41.73c.24.91.45,1.81.61,2.72C97.11,52.18,82.47,59.54,70.18,59.82a42.37,42.37,0,0,0-25.7,9.62c-.29-.45-.57-.92-.85-1.39a35.4,35.4,0,0,1-2.48-5.32c-.36-1-.69-2-1-3a35,35,0,0,1-1.07-6.07h0c5.14-5.37,14.27-10.93,30.78-14.34,13.83-2.86,23.5-7,30.21-11.1A34.49,34.49,0,0,1,107.23,41.73Z"/><path class="cls-2" d="M69.9,39.28c13.83-2.86,23.5-7,30.21-11.1a34.78,34.78,0,0,0-9.22-7.62C83.12,26.64,72.6,32.18,61.58,34.25c-9.91,1.86-16.7,4.52-21.29,7.07a34.41,34.41,0,0,0-1.17,12.3C44.26,48.25,53.39,42.69,69.9,39.28Z"/><path class="cls-4" d="M90.89,20.56C83.12,26.64,72.6,32.18,61.58,34.25c-9.91,1.86-16.7,4.52-21.29,7.07A34.65,34.65,0,0,1,88.36,19.26C89.22,19.66,90.07,20.09,90.89,20.56Z"/><path class="cls-3" d="M52.2,78a34.71,34.71,0,0,0,52.31-11.24c-5.16,1-12,1.8-21.31,2.68A93.77,93.77,0,0,0,52.2,78Z"/><path class="cls-5" d="M104.17,67.35c-2.94,1.79-13.81,6.56-22,7.08-5.83.38-13.09,5.29-18.38,9.57A34.92,34.92,0,0,1,47.32,73.27c6-3,15.9-7,26.65-6.5,17.26.8,27.38.59,30.54,0C105.21,66.57,105,66.84,104.17,67.35Z"/><path class="cls-6" d="M100.11,28.18c-6.71,4.11-16.38,8.24-30.21,11.1-16.51,3.41-25.64,9-30.78,14.34h0a34,34,0,0,0,.65,4.31l.34.19s2-13.3,39.78-13A50.92,50.92,0,0,0,106,38,34.45,34.45,0,0,0,100.11,28.18Z"/><path class="cls-2" d="M90.09,50.69S83.38,56,67.27,57.1c-10.3.71-18.82,6.71-23.64,10.95a35.4,35.4,0,0,1-2.48-5.32c5-3.91,14.18-9.39,25.72-9.3C84.76,53.57,90.09,50.69,90.09,50.69Z"/><path class="cls-5" d="M108.42,50.36a34.25,34.25,0,0,1-.87,8C96.91,62.8,77.93,63.1,77.93,63.1A70.47,70.47,0,0,0,108.42,50.36Z"/><path class="cls-2" d="M88.36,19.26C73.89,27.47,51.89,30.58,51.89,30.58,66.52,26,75.18,20.6,80,16.58A34.49,34.49,0,0,1,88.36,19.26Z"/><path class="cls-3" d="M90.89,20.56C83.12,26.64,72.6,32.18,61.58,34.25c-9.91,1.86-16.7,4.52-21.29,7.07a34.91,34.91,0,0,0-1,4.8c3.57-2.87,10.59-7.21,21.69-8.68C78.09,35.18,90.43,26.92,90.89,20.56Z"/><path class="cls-7" d="M64.73,17.19a35.2,35.2,0,0,0-8.5,3.54A34.7,34.7,0,0,1,80.28,84.78c.8-.15,1.61-.33,2.41-.54a34.71,34.71,0,0,0-18-67Z"/><path class="cls-8" d="M117,38.29c-.71-.22-1.42-.45-2.15-.66q-4.89-1.49-10.3-2.77c.41.78.78,1.58,1.12,2.4,2.68.67,5.25,1.36,7.7,2.09.73.21,1.46.44,2.17.67,18.63,5.82,29.54,13.17,28.91,18.84-.73,6.64-17.43,12.09-43,12.63-6,.13-12.45,0-19.32-.48-1-.06-2.08-.13-3.14-.22-2.56-.2-5.18-.45-7.84-.74a233.64,233.64,0,0,1-29.1-5C39,64.3,36,63.5,33.2,62.67c-.74-.23-1.47-.44-2.18-.67C12.39,56.18,1.49,48.82,2.11,43.16,2.85,36.48,19.72,31,45.49,30.52c.52-.73,1.06-1.43,1.63-2.1C20.38,28.69,1,34.17,0,42.93-.76,50.11,11,57.82,29.56,63.73l2.16.67c3.64,1.1,7.52,2.12,11.59,3.07A239.15,239.15,0,0,0,71,72.11c1.87.21,3.73.4,5.56.55,1,.1,2.1.18,3.14.26,7,.54,13.8.76,20.13.67,26.58-.31,45.79-5.78,46.75-14.5C147.35,51.91,135.62,44.2,117,38.29ZM42.1,65.05C39,64.3,36,63.5,33.2,62.67c-.51.57-1,1.15-1.48,1.73,3.64,1.1,7.52,2.12,11.59,3.07C42.88,66.69,42.47,65.89,42.1,65.05Z"/><path class="cls-8" d="M95.22,11.09c-.65.35-1.32.69-2,1.06q-4.5,2.4-9.24,5.32c.84.26,1.68.56,2.49.9q3.55-2.13,6.92-4c.67-.37,1.35-.72,2-1.07,17.29-9,30.21-11.57,33.77-7.12,4.17,5.22-3.78,20.88-21.47,39.33-4.13,4.32-8.8,8.8-14,13.32-.77.69-1.56,1.38-2.38,2.06-2,1.68-4,3.35-6.07,5a234.29,234.29,0,0,1-24.1,17q-4.11,2.5-8,4.6l-2,1.08c-17.29,9-30.2,11.56-33.77,7.12-4.2-5.25,3.86-21,21.74-39.62-.15-.88-.26-1.75-.33-2.64-18.72,19.11-28.54,36.68-23,43.56,4.51,5.63,18.26,2.79,35.58-6.17l2-1.06c3.35-1.79,6.82-3.81,10.37-6A238.23,238.23,0,0,0,86.57,67.58C88,66.41,89.48,65.22,90.89,64c.81-.67,1.61-1.35,2.4-2,5.36-4.6,10.29-9.22,14.71-13.76,18.57-19,28.3-36.47,22.8-43.32C126.29-.71,112.54,2.13,95.22,11.09ZM61.17,83q-4.11,2.5-8,4.6c0,.77.12,1.52.18,2.27,3.35-1.79,6.82-3.81,10.37-6A26.46,26.46,0,0,1,61.17,83Z"/><path class="cls-1" d="M17.6,52.44a7.57,7.57,0,1,1-9.28-5.36A7.57,7.57,0,0,1,17.6,52.44Z"/><path class="cls-2" d="M8.32,47.08a7.79,7.79,0,0,0-1.66.67A7.57,7.57,0,0,1,10.47,62a7.2,7.2,0,0,0,1.77-.25A7.57,7.57,0,1,0,8.32,47.08Z"/><path class="cls-2" d="M138.12,66.93a5.94,5.94,0,1,1-7.28-4.2A5.94,5.94,0,0,1,138.12,66.93Z"/><circle class="cls-2" cx="113.8" cy="4.36" r="4.36"/></g></g></svg>