<svg xmlns="http://www.w3.org/2000/svg" viewBox="0 0 99.82 99.82"><defs><style>.cls-1{fill:#8ccfff;}.cls-2{fill:#69c1f7;}.cls-3{fill:#29adef;}.cls-4{fill:#fff;opacity:0.51;}.cls-5{fill:#0e96cc;opacity:0.46;}</style></defs><title>Asset 9</title><g id="Layer_2" data-name="Layer 2"><g id="Layer_1-2" data-name="Layer 1"><circle class="cls-1" cx="49.91" cy="49.91" r="49.91" transform="translate(-16.75 26.7) rotate(-25.8)"/><path class="cls-2" d="M99.82,49.91A49.91,49.91,0,0,1,27.89,94.7c-1.21-.59-2.39-1.23-3.53-1.92a50,50,0,0,1-20.25-23A48.41,48.41,0,0,1,.86,59.15,49.91,49.91,0,0,1,91,21.56a49.82,49.82,0,0,1,8.84,28.35Z"/><path class="cls-1" d="M91,21.56A57.36,57.36,0,0,1,75.61,32.05C53.11,43.14,12.13,35,.86,59.15A50.07,50.07,0,0,1,3.68,31.07,49.91,49.91,0,0,1,91,21.56Z"/><path class="cls-3" d="M99.82,49.91a49.93,49.93,0,0,1-71.93,44.8c3.67-15.89,18.25-29.44,31.52-32C75.48,59.68,89.49,49.65,99,41A49.38,49.38,0,0,1,99.82,49.91Z"/><path class="cls-4" d="M45.63,18.54C27.81,26.18,14,26.74,3.68,31.07A49.93,49.93,0,0,1,57.17.53C58.45,6.71,56.71,13.79,45.63,18.54Z"/><path class="cls-5" d="M99,41A49.9,49.9,0,0,0,36.53,1.83,49.92,49.92,0,0,1,82.78,42.74a50.3,50.3,0,0,1,.8,8.91A49.93,49.93,0,0,1,47,99.74c.95.05,1.91.08,2.87.08A49.91,49.91,0,0,0,99.82,49.91,49.38,49.38,0,0,0,99,41Z"/></g></g></svg>