<svg id="green_planet" data-name="Green Planet with Rings" xmlns="http://www.w3.org/2000/svg" viewBox="0 0 75 75"><defs><style>.cls-1{fill:#1ad8d8;}.cls-2{fill:#0cc1bc;}.cls-3,.cls-7{fill:#05aaa1;}.cls-4,.cls-5,.cls-6{fill:#21d8cf;}.cls-5{opacity:0.54;}.cls-6{opacity:0.7;}.cls-7{opacity:0.67;}.cls-8{fill:#65efe5;}</style></defs><title>Artboard 1</title><path class="cls-1" d="M53.47,46.05c-.06.11-.12.22-.17.33-1.5.91-7.07,3.35-11.23,3.62-3,.19-6.7,2.71-9.41,4.89a17.9,17.9,0,0,1-8.45-5.48,28.2,28.2,0,0,1,13.64-3.33C46.67,46.49,51.85,46.38,53.47,46.05Z"/><path class="cls-2" d="M55.18,34.66a18.28,18.28,0,0,1,.29,3A17.55,17.55,0,0,1,55,41.8a18,18,0,0,1-1.56,4.25c-2.64.5-6.15.92-10.9,1.38A48,48,0,0,0,26.71,51.8a17.46,17.46,0,0,1-3.95-4.35A21.55,21.55,0,0,1,35.9,42.53C42.19,42.38,49.68,38.61,55.18,34.66Z"/><path class="cls-3" d="M54.86,33.27c.13.46.23.93.32,1.39-5.5,4-13,7.72-19.28,7.87a21.55,21.55,0,0,0-13.14,4.92l-.44-.72A18.31,18.31,0,0,1,21.05,44c-.18-.5-.35-1-.49-1.55a16.79,16.79,0,0,1-.54-3.1h0c2.62-2.75,7.29-5.59,15.74-7.34a48,48,0,0,0,15.46-5.67A17.53,17.53,0,0,1,54.86,33.27Z"/><path class="cls-2" d="M35.76,32a48,48,0,0,0,15.46-5.67,17.69,17.69,0,0,0-4.72-3.9,36.09,36.09,0,0,1-15,7,36,36,0,0,0-10.9,3.62A17.65,17.65,0,0,0,20,39.35C22.64,36.6,27.31,33.76,35.76,32Z"/><path class="cls-4" d="M46.5,22.44a36.09,36.09,0,0,1-15,7,36,36,0,0,0-10.9,3.62A17.8,17.8,0,0,1,40.94,20.4a18,18,0,0,1,4.27,1.37C45.65,22,46.08,22.2,46.5,22.44Z"/><path class="cls-3" d="M26.71,51.8a17.75,17.75,0,0,0,26.76-5.75c-2.64.5-6.15.92-10.9,1.38A48,48,0,0,0,26.71,51.8Z"/><path class="cls-5" d="M53.3,46.38c-1.5.91-7.07,3.35-11.23,3.62-3,.19-6.7,2.71-9.41,4.89a17.9,17.9,0,0,1-8.45-5.48,28.2,28.2,0,0,1,13.64-3.33c8.82.41,14,.3,15.62,0C53.83,46,53.73,46.12,53.3,46.38Z"/><path class="cls-6" d="M51.22,26.34A48,48,0,0,1,35.76,32C27.31,33.76,22.64,36.6,20,39.35h0a16.7,16.7,0,0,0,.33,2.2l.17.1s1-6.8,20.36-6.64a26.07,26.07,0,0,0,13.35-3.67A17.46,17.46,0,0,0,51.22,26.34Z"/><path class="cls-2" d="M46.09,37.85s-3.43,2.71-11.67,3.28c-5.27.37-9.63,3.44-12.1,5.6A18.31,18.31,0,0,1,21.05,44a21.59,21.59,0,0,1,13.16-4.75C43.37,39.33,46.09,37.85,46.09,37.85Z"/><path class="cls-5" d="M55.47,37.69A17.55,17.55,0,0,1,55,41.8c-5.45,2.25-15.16,2.4-15.16,2.4A36,36,0,0,0,55.47,37.69Z"/><path class="cls-2" d="M45.21,21.77c-7.41,4.2-18.66,5.8-18.66,5.8C34,25.24,38.46,22.46,40.94,20.4A18,18,0,0,1,45.21,21.77Z"/><path class="cls-3" d="M46.5,22.44a36.09,36.09,0,0,1-15,7,36,36,0,0,0-10.9,3.62,18.34,18.34,0,0,0-.5,2.45A22.15,22.15,0,0,1,31.2,31.07C40,29.92,46.27,25.69,46.5,22.44Z"/><path class="cls-7" d="M33.12,20.71a17.69,17.69,0,0,0-4.35,1.82A17.75,17.75,0,0,1,41.07,55.3c.41-.08.83-.17,1.24-.28a17.76,17.76,0,0,0-9.19-34.31Z"/><path class="cls-8" d="M59.88,31.51l-1.11-.34c-1.66-.51-3.42-1-5.26-1.42q.32.6.57,1.23c1.37.34,2.69.7,3.94,1.07l1.11.34c9.53,3,15.11,6.74,14.79,9.64-.37,3.4-8.92,6.19-22,6.46-3.06.07-6.37,0-9.88-.24l-1.61-.11c-1.31-.1-2.65-.23-4-.38A118.54,118.54,0,0,1,21.54,45.2c-1.6-.38-3.11-.79-4.55-1.22l-1.12-.34C6.34,40.66.76,36.9,1.08,34c.38-3.42,9-6.22,22.19-6.47.27-.37.55-.73.84-1.07C10.42,26.6.51,29.4,0,33.88c-.41,3.67,5.6,7.62,15.1,10.64l1.11.35c1.86.56,3.85,1.08,5.93,1.57a122.26,122.26,0,0,0,14.15,2.37c.95.11,1.91.21,2.84.28.54.06,1.08.1,1.61.14,3.6.27,7.06.38,10.3.34,13.6-.16,23.43-3,23.92-7.42C75.39,38.48,69.39,34.53,59.88,31.51ZM21.54,45.2c-1.6-.38-3.11-.79-4.55-1.22-.26.29-.51.59-.76.89,1.86.56,3.85,1.08,5.93,1.57C21.94,46,21.73,45.63,21.54,45.2Z"/><path class="cls-8" d="M48.72,17.59l-1,.54q-2.3,1.23-4.73,2.72c.43.14.86.3,1.28.47,1.21-.73,2.39-1.41,3.54-2,.34-.19.68-.37,1-.54,8.84-4.64,15.45-5.93,17.27-3.65,2.14,2.67-1.93,10.68-11,20.12C53,37.43,50.6,39.72,48,42c-.39.35-.8.7-1.22,1.05-1,.86-2,1.72-3.1,2.57a119.28,119.28,0,0,1-12.34,8.72c-1.4.86-2.76,1.64-4.08,2.36l-1,.55c-8.84,4.63-15.45,5.92-17.28,3.64-2.14-2.68,2-10.76,11.13-20.27a12.14,12.14,0,0,1-.17-1.35C10.28,49.09,5.26,58.08,8.07,61.6c2.31,2.88,9.35,1.42,18.21-3.16l1-.54q2.58-1.38,5.31-3.08a121.81,121.81,0,0,0,11.68-8.33c.75-.6,1.49-1.2,2.21-1.81.42-.34.83-.69,1.23-1,2.74-2.35,5.27-4.72,7.53-7,9.5-9.73,14.47-18.66,11.66-22.16C64.61,11.55,57.58,13,48.72,17.59ZM31.29,54.38c-1.4.86-2.76,1.64-4.08,2.36l.09,1.16q2.58-1.38,5.31-3.08C32.17,54.69,31.73,54.55,31.29,54.38Z"/><path class="cls-1" d="M9,38.75A3.87,3.87,0,1,1,4.26,36,3.86,3.86,0,0,1,9,38.75Z"/><path class="cls-2" d="M4.26,36a3.77,3.77,0,0,0-.85.34,3.87,3.87,0,0,1,2,7.27,4,4,0,0,0,.9-.13,3.87,3.87,0,0,0-2-7.48Z"/><path class="cls-2" d="M70.67,46.16A3,3,0,1,1,66.94,44,3.06,3.06,0,0,1,70.67,46.16Z"/><circle class="cls-2" cx="58.23" cy="14.15" r="2.23"/></svg>
