<svg xmlns="http://www.w3.org/2000/svg" viewBox="0 0 75 75"><defs><style>.cls-1{fill:#f99164;}.cls-2,.cls-3{fill:#ea5f2f;}.cls-2{opacity:0.56;}.cls-4{fill:#c93d18;}</style></defs><title>Asset 15</title><g id="Layer_2" data-name="Layer 2"><g id="Layer_1-2" data-name="Layer 1"><circle class="cls-1" cx="37.5" cy="37.5" r="37.5"/><path class="cls-2" d="M37.5,0a38,38,0,0,0-5.37.43,37.45,37.45,0,0,1,0,74.14A38,38,0,0,0,37.5,75a37.5,37.5,0,0,0,0-75Z"/><path class="cls-3" d="M45.47,17.06a7.79,7.79,0,1,1-7.78-7.78A7.78,7.78,0,0,1,45.47,17.06Z"/><circle class="cls-4" cx="37.31" cy="37.88" r="5.13"/><circle class="cls-3" cx="17.17" cy="51.17" r="5.38"/><path class="cls-3" d="M59.94,31.31a6.51,6.51,0,1,1-6.5-6.5A6.5,6.5,0,0,1,59.94,31.31Z"/></g></g></svg>