<svg xmlns="http://www.w3.org/2000/svg" viewBox="0 0 99.99 100"><defs><style>.cls-1{isolation:isolate;}.cls-2{fill:#8ccfff;}.cls-3{fill:#05aaa1;}.cls-4{fill:#0cc1bc;}.cls-5{fill:#818182;opacity:0.45;mix-blend-mode:multiply;}</style></defs><title>Asset 12</title><g class="cls-1"><g id="Layer_2" data-name="Layer 2"><g id="Layer_1-2" data-name="Layer 1"><path class="cls-2" d="M100,50A50,50,0,0,1,70.83,95.46a49.33,49.33,0,0,1-14.09,4.08,49.91,49.91,0,0,1-28.8-4.67l-1.2-.62c-.8-.42-1.57-.84-2.33-1.3A50,50,0,0,1,0,50a50.53,50.53,0,0,1,.5-7.11A50,50,0,0,1,42.86.5,50.82,50.82,0,0,1,50,0a49.67,49.67,0,0,1,19.8,4.09h0A49.89,49.89,0,0,1,100,50Z"/><path class="cls-3" d="M100,50A49.75,49.75,0,0,1,91,78.55C83.9,68.62,61.48,75,73.22,62.78c14.57-15.13,6.72-22.42-9.53-37-9.16-8.21-1.95-16.24,6.1-21.69h0A49.89,49.89,0,0,1,100,50Z"/><path class="cls-3" d="M3.71,44.84C2.58,44.21,1.52,43.56.5,42.9a49.3,49.3,0,0,1,1.08-5.33A50,50,0,0,1,42.86.5C32.39,9.05,21.63,21,32.3,28,50.24,39.8,34,61.65,3.71,44.84Z"/><path class="cls-3" d="M70.83,95.46a49.65,49.65,0,0,1-14.09,4.08A96.29,96.29,0,0,0,49.3,91c-6.48-6.5-15.11-1.19-22.56,3.25-.32-.17-.64-.33-.95-.52-.48-.25-.94-.51-1.38-.79-.81-.48-1.58-1-2.35-1.49a50.53,50.53,0,0,1-7.88-6.56l-.33-.35c-.84-.88-1.65-1.8-2.41-2.74C14.75,71.69,27.6,68.17,41.46,63c6.72-2.52,8.72-4.88,8.59-6.86-.3-4.35,4.74-7,7.72-3.85,3.85,4.12,1.92,12.69.5,20.8S65.36,88.15,70.83,95.46Z"/><path class="cls-4" d="M91.14,21.6A50.21,50.21,0,0,0,76.06,7.33c-4.49,3.32-11.57,10.53-2.28,18.45C86.48,36.62,91.9,51.94,82,65.21a79.93,79.93,0,0,1,13.58,5.34A49.81,49.81,0,0,0,100,50a50.42,50.42,0,0,0-.79-8.92A49.75,49.75,0,0,0,91.14,21.6Z"/><path class="cls-3" d="M47.29,10.83s-20,5-4.61,15.05,5.64,3.42,9.57-2.39S56,9.29,47.29,10.83Z"/><path class="cls-5" d="M99.2,41.08a50.07,50.07,0,0,0-29.4-37h0A49.67,49.67,0,0,0,50,0a50.82,50.82,0,0,0-7.13.5c-.6.09-1.2.19-1.79.3a49,49,0,0,1,13.4,3.67s0,0,0,0a50.08,50.08,0,0,1,29.4,37,50.5,50.5,0,0,1,.79,8.92A50,50,0,0,1,55.51,95.83a49.35,49.35,0,0,1-11.95,3.75,49.6,49.6,0,0,0,13.18,0,49.33,49.33,0,0,0,14.09-4.08A50.11,50.11,0,0,0,99.2,41.08Z"/><path class="cls-4" d="M1.58,37.57A50,50,0,0,1,30.41,4C23.9,12.45,16.26,25.86,25.94,33.3,38,42.57,19.84,47.13,1.58,37.57Z"/><path class="cls-4" d="M22.06,91.45a50.53,50.53,0,0,1-7.88-6.56l-.33-.35c2.79-2.91,9.22-8.57,16.38-7.92C38,77.31,27.1,84.93,22.06,91.45Z"/></g></g></g></svg>