<svg xmlns="http://www.w3.org/2000/svg" viewBox="0 0 102.08 50"><defs><style>.cls-1{fill:#8ccfff;}.cls-2{fill:#eb534a;}.cls-3{fill:#cc2521;}.cls-4{fill:#a50e0e;}</style></defs><title>Asset 11</title><g id="Layer_2" data-name="Layer 2"><g id="Layer_1-2" data-name="Layer 1"><circle class="cls-1" cx="51.59" cy="25" r="24.99" transform="translate(-0.36 0.76) rotate(-0.85)"/><path class="cls-2" d="M76,30.4a25,25,0,1,1-1.25-14.81A24.67,24.67,0,0,1,76.57,26,24.21,24.21,0,0,1,76,30.4Z"/><path class="cls-2" d="M70.12,41.78a24.48,24.48,0,0,1-3.4,3.12A168.08,168.08,0,0,1,46,39.43a169.9,169.9,0,0,1-18.3-7.2,25.62,25.62,0,0,1-.92-4.53,162.25,162.25,0,0,0,20.38,8.23,169.16,169.16,0,0,0,16.41,4.54h0Q67,41.25,70.12,41.78Z"/><path class="cls-3" d="M70.7,17A4.76,4.76,0,0,1,65,20.57a4.71,4.71,0,0,1-1.95-.93,4.77,4.77,0,0,1-1.79-3.87,5.29,5.29,0,0,1,.11-.88,4.77,4.77,0,0,1,9.07-.77,4.73,4.73,0,0,1,.35,2A5.08,5.08,0,0,1,70.7,17Z"/><path class="cls-4" d="M70.81,16.1a4.73,4.73,0,0,0-.35-2,4.79,4.79,0,0,0-3.38-2.86,4.6,4.6,0,0,0-1.1-.1,4.76,4.76,0,0,1,2.69,4.47,4.83,4.83,0,0,1-.11.84A4.75,4.75,0,0,1,64,20.2a4.35,4.35,0,0,0,1,.37A4.76,4.76,0,0,0,70.7,17,5.08,5.08,0,0,0,70.81,16.1Z"/><path class="cls-3" d="M67,35.16a3.48,3.48,0,0,1-4.15,2.64,3.35,3.35,0,0,1-1.42-.68,3.45,3.45,0,0,1-1.3-2.82,3.5,3.5,0,0,1,.08-.64,3.48,3.48,0,0,1,6.61-.56,3.35,3.35,0,0,1,.26,1.44A4.38,4.38,0,0,1,67,35.16Z"/><path class="cls-4" d="M67.06,34.54a3.35,3.35,0,0,0-.26-1.44A3.44,3.44,0,0,0,64.33,31a3.68,3.68,0,0,0-1-.08,3.52,3.52,0,0,1,1.5,1.71,3.37,3.37,0,0,1,.26,1.45,4.25,4.25,0,0,1-.08.61,3.49,3.49,0,0,1-3.1,2.72,3.68,3.68,0,0,0,1,.37A3.48,3.48,0,0,0,67,35.16,4.38,4.38,0,0,0,67.06,34.54Z"/><path class="cls-3" d="M40.09,21.11a4.61,4.61,0,0,1-5.5,3.51A4.61,4.61,0,0,1,31,20a5.08,5.08,0,0,1,.11-.85,4.6,4.6,0,0,1,9.1,1.17A4.48,4.48,0,0,1,40.09,21.11Z"/><path class="cls-4" d="M40.19,20.29a4.58,4.58,0,0,0-3.6-4.67,4.4,4.4,0,0,0-1-.11,4.55,4.55,0,0,1,2.75,4.39,4.48,4.48,0,0,1-.1.81,4.61,4.61,0,0,1-4.56,3.62,4.83,4.83,0,0,0,.86.29,4.61,4.61,0,0,0,5.5-3.51A4.48,4.48,0,0,0,40.19,20.29Z"/><path class="cls-4" d="M55.81,22.63a2.22,2.22,0,0,1-2.65,1.7,2.23,2.23,0,0,1-1.75-2.25,1.92,1.92,0,0,1,.05-.41,2.23,2.23,0,0,1,4.41.57A2.63,2.63,0,0,1,55.81,22.63Z"/><path class="cls-3" d="M49,30.35a2.76,2.76,0,0,1-3.29,2.1,2.64,2.64,0,0,1-1.13-.54,2.77,2.77,0,0,1-1-2.24,3,3,0,0,1,.07-.51,2.76,2.76,0,0,1,5.25-.44A2.72,2.72,0,0,1,49,29.86,2.63,2.63,0,0,1,49,30.35Z"/><path class="cls-4" d="M49,29.86a2.8,2.8,0,0,0-2.17-2.8A2.84,2.84,0,0,0,46,27a2.78,2.78,0,0,1,1.21,1.37,2.72,2.72,0,0,1,.2,1.14,3.86,3.86,0,0,1-.06.49,2.76,2.76,0,0,1-2.48,2.16A2.76,2.76,0,0,0,49,30.35,2.63,2.63,0,0,0,49,29.86Z"/><path class="cls-4" d="M50.8,8.13a3.1,3.1,0,0,1-3.71,2.36,3,3,0,0,1-1.27-.6,3.11,3.11,0,0,1-1.16-2.53,2.78,2.78,0,0,1,.07-.57,3.1,3.1,0,0,1,5.91-.5,3,3,0,0,1,.23,1.29A3.45,3.45,0,0,1,50.8,8.13Z"/><path class="cls-4" d="M75.39,17.31a24,24,0,0,1,1.08,4.63,97.47,97.47,0,0,1,11.9,7c8.18,5.69,10.44,9.92,10,11.37-.79,2.38-9.8,4.92-28.1,1.77-2.08-.36-4.28-.79-6.6-1.31h0a169.16,169.16,0,0,1-16.41-4.54A162.25,162.25,0,0,1,26.84,28a100.62,100.62,0,0,1-13.13-7.58C5.53,14.69,3.27,10.46,3.75,9,4.57,6.55,14.24,3.9,34,7.63a25.75,25.75,0,0,1,3.65-3C17.78.43,2.37,1.43.25,7.85s9.42,16.2,27.51,24.63a169.26,169.26,0,0,0,18.31,7.21,167.49,167.49,0,0,0,20.75,5.47c18.69,3.6,33,2.44,35-3.73S92.87,25.62,75.39,17.31Z"/><path class="cls-3" d="M89.77,25.42a4.92,4.92,0,0,1-9.72-1.22,4.81,4.81,0,0,1,.11-.91,4.92,4.92,0,0,1,9.36-.78,4.8,4.8,0,0,1,.36,2A5.18,5.18,0,0,1,89.77,25.42Z"/><path class="cls-4" d="M15.25,21.43c-.53-.35-1-.69-1.54-1.05h0a1.53,1.53,0,0,0-2.08.28l-.39.47a1.54,1.54,0,0,0,.3,2.24l1.46,1A7.14,7.14,0,0,0,15.25,21.43Z"/><path class="cls-2" d="M15.65,20.19A7.22,7.22,0,0,1,1.38,18.4a6.71,6.71,0,0,1,.16-1.33,7.23,7.23,0,0,1,14.28,1.84A7.14,7.14,0,0,1,15.65,20.19Z"/><path class="cls-3" d="M13.68,17.37a2.11,2.11,0,0,1-4.16-.52,2.6,2.6,0,0,1,.05-.39,2.1,2.1,0,0,1,4-.34,2.18,2.18,0,0,1,.16.88A2.35,2.35,0,0,1,13.68,17.37Z"/><path class="cls-3" d="M6.72,16.66a1.56,1.56,0,0,1-1.86,1.18,1.54,1.54,0,0,1-1.21-1.57,1.5,1.5,0,0,1,0-.29A1.57,1.57,0,0,1,5.54,14.8a1.59,1.59,0,0,1,1.22,1.58A2.7,2.7,0,0,1,6.72,16.66Z"/><path class="cls-3" d="M8.57,22.71a1.38,1.38,0,0,1-2.21.78,1.37,1.37,0,0,1-.52-1.13,1.07,1.07,0,0,1,0-.25,1.38,1.38,0,0,1,2.73.35A1.13,1.13,0,0,1,8.57,22.71Z"/></g></g></svg>