<svg xmlns="http://www.w3.org/2000/svg" viewBox="0 0 53.84 53.84"><defs><style>.cls-1{fill:#dd5a31;}.cls-2{fill:#ea7349;}.cls-3{fill:#f99164;}.cls-4{fill:#ffb89f;}.cls-5,.cls-6{fill:#c13e1b;}.cls-6{opacity:0.44;}</style></defs><title>Asset 8</title><g id="Layer_2" data-name="Layer 2"><g id="Layer_1-2" data-name="Layer 1"><path class="cls-1" d="M10.28,35.73c-.75-3.15-4.89-1.84-8.73.19a27,27,0,0,0,6.28,10c2.43-1.38,5.11-2.4,6.25-1.11,1.7,1.91,22.73-6.38,37-6a26.93,26.93,0,0,0,2.76-11.89,27.24,27.24,0,0,0-.21-3.28C36.3,21,11.53,41,10.28,35.73Z"/><path class="cls-2" d="M10.86,22C11,18,5.55,20.17.27,23.13A27.94,27.94,0,0,0,0,26.92a26.84,26.84,0,0,0,1.55,9c3.84-2,8-3.34,8.73-.19C11.53,41,36.3,21,53.63,23.64A26.81,26.81,0,0,0,49,11.58C33.17,15.59,10.65,27.44,10.86,22Z"/><path class="cls-3" d="M10.86,22c-.21,5.45,22.31-6.4,38.18-10.41A27,27,0,0,0,43.1,5.41c-13,3.9-27,9.14-26.1,4.88.63-2.89-4.68-2.16-10.93-.39A26.71,26.71,0,0,0,.27,23.13C5.55,20.17,11,18,10.86,22Z"/><path class="cls-4" d="M6.07,9.9c6.25-1.77,11.56-2.5,10.93.39-.92,4.26,13.06-1,26.1-4.88a26.9,26.9,0,0,0-37,4.49Z"/><path class="cls-5" d="M14.08,44.79c-1.14-1.29-3.82-.27-6.25,1.11a26.93,26.93,0,0,0,43.25-7.09C36.81,38.41,15.78,46.7,14.08,44.79Z"/><path class="cls-6" d="M53.41,22.12A26.91,26.91,0,0,0,19.7,1,26.92,26.92,0,0,1,25.37,53.8c.51,0,1,0,1.55,0A26.93,26.93,0,0,0,53.41,22.12Z"/></g></g></svg>