<svg id="Layer_1" data-name="Layer 1" xmlns="http://www.w3.org/2000/svg" viewBox="0 0 102.08 102.08"><defs><style>.cls-1{fill:#8ccfff;}.cls-2{fill:#eb534a;}.cls-3{fill:#cc2521;}.cls-4{fill:#a50e0e;}</style></defs><title>Artboard 1</title><circle class="cls-1" cx="51.59" cy="51.04" r="24.99" transform="translate(-0.75 0.77) rotate(-0.85)"/><path class="cls-2" d="M76,56.44a25,25,0,1,1-1.25-14.81A24.67,24.67,0,0,1,76.57,52,24.21,24.21,0,0,1,76,56.44Z"/><path class="cls-2" d="M70.12,67.82a24.48,24.48,0,0,1-3.4,3.12A168.08,168.08,0,0,1,46,65.47a169.9,169.9,0,0,1-18.3-7.2,25.62,25.62,0,0,1-.92-4.53A162.25,162.25,0,0,0,47.12,62a169.16,169.16,0,0,0,16.41,4.54h0Q67,67.29,70.12,67.82Z"/><path class="cls-3" d="M70.7,43A4.76,4.76,0,0,1,65,46.61a4.71,4.71,0,0,1-1.95-.93,4.77,4.77,0,0,1-1.79-3.87,5.29,5.29,0,0,1,.11-.88,4.77,4.77,0,0,1,9.07-.77,4.73,4.73,0,0,1,.35,2A5.08,5.08,0,0,1,70.7,43Z"/><path class="cls-4" d="M70.81,42.14a4.73,4.73,0,0,0-.35-2,4.79,4.79,0,0,0-3.38-2.86,4.6,4.6,0,0,0-1.1-.1,4.76,4.76,0,0,1,2.69,4.47,4.83,4.83,0,0,1-.11.84A4.75,4.75,0,0,1,64,46.24a4.35,4.35,0,0,0,1,.37A4.76,4.76,0,0,0,70.7,43,5.08,5.08,0,0,0,70.81,42.14Z"/><path class="cls-3" d="M67,61.2a3.48,3.48,0,0,1-4.15,2.64,3.35,3.35,0,0,1-1.42-.68,3.45,3.45,0,0,1-1.3-2.82,3.5,3.5,0,0,1,.08-.64,3.48,3.48,0,0,1,6.61-.56,3.35,3.35,0,0,1,.26,1.44A4.38,4.38,0,0,1,67,61.2Z"/><path class="cls-4" d="M67.06,60.58a3.35,3.35,0,0,0-.26-1.44,3.44,3.44,0,0,0-2.47-2.08,3.68,3.68,0,0,0-1-.08,3.52,3.52,0,0,1,1.5,1.71,3.37,3.37,0,0,1,.26,1.45,4.25,4.25,0,0,1-.08.61,3.49,3.49,0,0,1-3.1,2.72,3.68,3.68,0,0,0,1,.37A3.48,3.48,0,0,0,67,61.2,4.38,4.38,0,0,0,67.06,60.58Z"/><path class="cls-3" d="M40.09,47.15a4.61,4.61,0,0,1-5.5,3.51A4.61,4.61,0,0,1,31,46a5.08,5.08,0,0,1,.11-.85,4.6,4.6,0,0,1,9.1,1.17A4.48,4.48,0,0,1,40.09,47.15Z"/><path class="cls-4" d="M40.19,46.33a4.58,4.58,0,0,0-3.6-4.67,4.4,4.4,0,0,0-1-.11,4.55,4.55,0,0,1,2.75,4.39,4.48,4.48,0,0,1-.1.81,4.61,4.61,0,0,1-4.56,3.62,4.83,4.83,0,0,0,.86.29,4.61,4.61,0,0,0,5.5-3.51A4.48,4.48,0,0,0,40.19,46.33Z"/><path class="cls-4" d="M55.81,48.67a2.22,2.22,0,0,1-2.65,1.7,2.23,2.23,0,0,1-1.75-2.25,1.92,1.92,0,0,1,.05-.41,2.23,2.23,0,0,1,4.41.57A2.63,2.63,0,0,1,55.81,48.67Z"/><path class="cls-3" d="M49,56.39a2.76,2.76,0,0,1-3.29,2.1A2.64,2.64,0,0,1,44.53,58a2.77,2.77,0,0,1-1-2.24,3,3,0,0,1,.07-.51,2.76,2.76,0,0,1,5.25-.44A2.72,2.72,0,0,1,49,55.9,2.63,2.63,0,0,1,49,56.39Z"/><path class="cls-4" d="M49,55.9a2.8,2.8,0,0,0-2.17-2.8A2.84,2.84,0,0,0,46,53a2.78,2.78,0,0,1,1.21,1.37,2.72,2.72,0,0,1,.2,1.14,3.86,3.86,0,0,1-.06.49A2.76,2.76,0,0,1,44.9,58.2,2.76,2.76,0,0,0,49,56.39,2.63,2.63,0,0,0,49,55.9Z"/><path class="cls-4" d="M50.8,34.17a3.1,3.1,0,0,1-3.71,2.36,3,3,0,0,1-1.27-.6,3.11,3.11,0,0,1-1.16-2.53,2.78,2.78,0,0,1,.07-.57,3.1,3.1,0,0,1,5.91-.5,3,3,0,0,1,.23,1.29A3.45,3.45,0,0,1,50.8,34.17Z"/><path class="cls-4" d="M75.39,43.35A24,24,0,0,1,76.47,48a97.47,97.47,0,0,1,11.9,7c8.18,5.69,10.44,9.92,10,11.37-.79,2.38-9.8,4.92-28.1,1.77-2.08-.36-4.28-.79-6.6-1.31h0a169.16,169.16,0,0,1-16.41-4.54A162.25,162.25,0,0,1,26.84,54a100.62,100.62,0,0,1-13.13-7.58c-8.18-5.69-10.44-9.92-10-11.37.82-2.46,10.49-5.11,30.22-1.38a25.75,25.75,0,0,1,3.65-3C17.78,26.47,2.37,27.47.25,33.89s9.42,16.2,27.51,24.63a169.26,169.26,0,0,0,18.31,7.21A167.49,167.49,0,0,0,66.82,71.2c18.69,3.6,33,2.44,35-3.73S92.87,51.66,75.39,43.35Z"/><path class="cls-3" d="M89.77,51.46a4.92,4.92,0,0,1-9.72-1.22,4.81,4.81,0,0,1,.11-.91,4.92,4.92,0,0,1,9.36-.78,4.8,4.8,0,0,1,.36,2A5.18,5.18,0,0,1,89.77,51.46Z"/><path class="cls-4" d="M15.25,47.47c-.53-.35-1-.69-1.54-1h0a1.53,1.53,0,0,0-2.08.28l-.39.47a1.54,1.54,0,0,0,.3,2.24l1.46,1A7.14,7.14,0,0,0,15.25,47.47Z"/><path class="cls-2" d="M15.65,46.23A7.22,7.22,0,0,1,1.38,44.44a6.71,6.71,0,0,1,.16-1.33A7.23,7.23,0,0,1,15.82,45,7.14,7.14,0,0,1,15.65,46.23Z"/><path class="cls-3" d="M13.68,43.41a2.11,2.11,0,0,1-4.16-.52,2.6,2.6,0,0,1,.05-.39,2.1,2.1,0,0,1,4-.34,2.18,2.18,0,0,1,.16.88A2.35,2.35,0,0,1,13.68,43.41Z"/><path class="cls-3" d="M6.72,42.7a1.56,1.56,0,0,1-1.86,1.18,1.54,1.54,0,0,1-1.21-1.57,1.5,1.5,0,0,1,0-.29,1.57,1.57,0,0,1,1.86-1.18,1.59,1.59,0,0,1,1.22,1.58A2.7,2.7,0,0,1,6.72,42.7Z"/><path class="cls-3" d="M8.57,48.75a1.38,1.38,0,0,1-2.21.78,1.37,1.37,0,0,1-.52-1.13,1.07,1.07,0,0,1,0-.25,1.38,1.38,0,0,1,2.73.35A1.13,1.13,0,0,1,8.57,48.75Z"/></svg>